<?xml version="1.0" encoding="utf-8"?>
<!-- Generator: Adobe Illustrator 23.0.1, SVG Export Plug-In . SVG Version: 6.00 Build 0)  -->
<svg version="1.1" id="Layer_1" xmlns="http://www.w3.org/2000/svg" xmlns:xlink="http://www.w3.org/1999/xlink" x="0px" y="0px"
	 viewBox="0 0 200 200" style="enable-background:new 0 0 200 200;" xml:space="preserve">
<style type="text/css">
	.st0{fill:#FFFFFF;}
</style>
<path d="M193.5,77.9c8.5-15.9,0.2-35.6-15.7-44.1c-15.9-8.5-36.1-6-44.5,9.9c-8.5,15.9-0.6,36.6,15.3,45.1
	C164.4,97.2,185,93.8,193.5,77.9z"/>
<path d="M5.2,77.9C-3.2,61.9,5,42.2,20.9,33.7c15.9-8.5,36.1-6,44.5,9.9c8.5,15.9,0.6,36.6-15.3,45.1C34.3,97.2,13.7,93.8,5.2,77.9z
	"/>
<path class="st0" d="M170.1,84.9c-9.7-26.6-43-36.9-70.7-36.9c-27.7,0-61,10.3-70.7,36.9c-25.7,70.5,21.6,88.8,70.7,88.8
	C148.5,173.7,195.8,155.4,170.1,84.9z"/>
<path d="M99.3,177c-24.6,0-57.2-4.6-72.6-26.6c-11.1-15.9-11.6-38.3-1.3-66.6c10.5-28.8,46.3-39,73.8-39c27.5,0,63.3,10.2,73.8,39
	c10.3,28.3,9.9,50.7-1.3,66.6C156.5,172.4,124,177,99.3,177z M99.3,51.3C74,51.3,41.1,60.4,31.7,86c-9.5,26.1-9.4,46.5,0.5,60.5
	c13.8,19.7,44.1,23.8,67.2,23.8c23,0,53.4-4.1,67.2-23.8c9.8-14,10-34.4,0.5-60.5C157.6,60.4,124.7,51.3,99.3,51.3z"/>
<path d="M122.8,103.4c13-15.8,59.4,9.2,36.7,35.1C137.5,163.6,107.3,122.3,122.8,103.4z"/>
<path d="M75.9,103.4c-13-15.8-59.4,9.2-36.7,35.1C61.2,163.6,91.4,122.3,75.9,103.4z"/>
<path d="M96.9,128.1"/>
<path class="st0" d="M147.2,122.6c0-3.8-3.1-6.9-6.9-6.9c-3.8,0-6.9,3.1-6.9,6.9c0,3.8,3.1,6.9,6.9,6.9
	C144.1,129.5,147.2,126.4,147.2,122.6z"/>
<path class="st0" d="M51.5,122.6c0-3.8,3.1-6.9,6.9-6.9c3.8,0,6.9,3.1,6.9,6.9c0,3.8-3.1,6.9-6.9,6.9
	C54.6,129.5,51.5,126.4,51.5,122.6z"/>
<path d="M108.5,131c-4.3,2.8-5.1-0.5-5.1-4.1c0-3.2,0.3-7-3.9-7c-4.1,0-3.9,3.8-3.9,7c0,3.6-0.8,6.9-5.1,4.1c-4.3-2.7-8.4,3.1-3,6.4
	c4.7,2.9,10.5,0.7,11.9-0.7c1.4,1.4,7.2,3.6,11.9,0.7C117,134.1,112.8,128.3,108.5,131z"/>
<path d="M105.3,119.5c-1.3-1.5-3.5-2.2-5.6-2.2l0,0c-2.1,0-4.3,0.7-5.6,2.2c-2.5,2.7-2.5,7.3,5.4,9.4h0.4
	C107.7,126.8,107.7,122.2,105.3,119.5z"/>
</svg>
