<?xml version="1.0" encoding="utf-8"?>
<!-- Generator: Adobe Illustrator 23.0.1, SVG Export Plug-In . SVG Version: 6.00 Build 0)  -->
<svg version="1.1" id="Layer_1" xmlns="http://www.w3.org/2000/svg" xmlns:xlink="http://www.w3.org/1999/xlink" x="0px" y="0px"
	 viewBox="0 0 200 200" style="enable-background:new 0 0 200 200;" xml:space="preserve">
<style type="text/css">
	.st0{fill:#FFFFFF;}
</style>
<g>
	<path class="st0" d="M67.1,67c6.5-16.7,2.6-32.2-6.1-36.9c-7.8-4.2-18.2,0.8-22.3,2.8C35.1,34.7,22,41.1,20.9,52
		c-1.1,10.5,9.1,22.8,25.6,26.6C53.4,74.7,60.3,70.9,67.1,67z"/>
	<path d="M47.1,82.1l-1.3-0.3c-17.1-3.9-29.5-17.2-28.2-30.2c0.9-8.5,7.5-15.8,19.6-21.7c4.4-2.1,16.1-7.8,25.4-2.8
		c10.9,5.9,14.3,24,7.6,41.1l-0.4,1.1L47.1,82.1z M54.1,31.8c-5.4,0-11.3,2.9-13.9,4.1c-9.9,4.8-15.3,10.4-15.9,16.4
		c-0.8,8.1,7.3,18.8,21.8,22.6l18.3-10.3c5.4-15,1.7-28-5-31.6C57.8,32.2,55.9,31.8,54.1,31.8z"/>
</g>
<g>
	<path class="st0" d="M132.3,67c-6.5-16.7-2.6-32.2,6.1-36.9c7.8-4.2,18.2,0.8,22.3,2.8c3.6,1.8,16.7,8.1,17.8,19.1
		c1.1,10.5-9.1,22.8-25.6,26.6C146,74.7,139.1,70.9,132.3,67z"/>
	<path d="M152.3,82.1l-22.7-12.8l-0.4-1.1c-6.6-17.1-3.3-35.2,7.6-41.1c9.3-5,21,0.6,25.4,2.8c12.2,5.9,18.8,13.2,19.6,21.7
		c1.3,13-11.1,26.3-28.2,30.2L152.3,82.1z M135,64.7L153.3,75c14.5-3.8,22.6-14.6,21.8-22.6c-0.6-6-6-11.5-15.9-16.4
		c-3.5-1.7-12.9-6.3-19.2-2.9C133.3,36.7,129.6,49.7,135,64.7z"/>
</g>
<path d="M151,74.2l-14.1-7.9l-0.4-1.2c-4.2-10.8-2-21.8,5.1-25.6c6.1-3.3,13.3,0.2,16,1.6c7.5,3.7,11.6,8.3,12.2,13.8
	c0.8,8.3-6.8,16.6-17.5,19.1L151,74.2z M142.4,61.5l9.5,5.4c7-2.1,11.3-7.4,10.9-11.3c-0.2-2-1.8-5.1-8.3-8.3
	c-1.9-0.9-6.8-3.3-9.7-1.7C141.5,47.3,139.9,54,142.4,61.5z"/>
<path d="M48.4,74.2l-1.3-0.3c-10.6-2.4-18.3-10.8-17.5-19.1c0.6-5.5,4.7-10.1,12.2-13.8c2.7-1.3,10-4.9,16-1.6
	c7.1,3.8,9.3,14.8,5.1,25.6l-0.4,1.2L48.4,74.2z M52.2,45c-2.7,0-5.9,1.6-7.3,2.2c-6.5,3.2-8.1,6.2-8.3,8.3
	c-0.4,4,3.9,9.2,10.9,11.3l9.5-5.4c2.5-7.5,0.9-14.2-2.4-15.9C53.9,45.2,53.1,45,52.2,45z"/>
<path d="M192.2,145.3c-0.3,0-0.5,0-0.8-0.1l-63.1-16l64.8-9.4c1.8-0.3,3.5,1,3.8,2.8c0.3,1.8-1,3.5-2.8,3.8l-31.5,4.6l30.5,7.7
	c1.8,0.5,2.9,2.3,2.4,4.1C195,144.3,193.7,145.3,192.2,145.3z"/>
<path d="M6.5,145.3c-1.5,0-2.9-1-3.2-2.5c-0.5-1.8,0.6-3.6,2.4-4.1l30.5-7.7l-31.5-4.6c-1.8-0.3-3.1-2-2.8-3.8
	c0.3-1.8,2-3.1,3.8-2.8l64.8,9.4l-63.1,16C7,145.2,6.7,145.3,6.5,145.3z"/>
<path d="M149.3,126.5c0.9-5.8-4-10.7-9.8-9.8c-3.6,0.5-6.6,3.5-7.1,7.1c-0.9,5.8,4,10.8,9.9,9.9
	C145.8,133.1,148.7,130.1,149.3,126.5z"/>
<path d="M50.2,126.5c-0.9-5.8,4-10.7,9.8-9.8c3.6,0.5,6.6,3.5,7.1,7.1c0.9,5.8-4,10.8-9.9,9.9C53.6,133.1,50.7,130.1,50.2,126.5z"/>
<path class="st0" d="M171.3,87c-9.8-26.9-43.6-37.3-71.7-37.3C71.6,49.6,37.8,60.1,28,87c-26,71.4,21.8,90,71.6,90
	C149.5,176.9,197.4,158.4,171.3,87z"/>
<path d="M137.4,169.3c-5-30-19.8-49.3-37.7-49.3v-6.9c21.4,0,38.9,21.6,44.5,55.1L137.4,169.3z"/>
<path d="M62,169.3l-6.8-1.1c5.6-33.5,23.1-55.1,44.5-55.1v6.9C81.8,120,67,139.4,62,169.3z"/>
<path d="M99.7,180.3c-24.9,0-57.9-4.7-73.5-27c-11.3-16.1-11.7-38.8-1.3-67.5c10.6-29.2,46.9-39.5,74.8-39.5
	c27.8,0,64.2,10.4,74.8,39.5c10.4,28.6,10,51.3-1.3,67.5C157.6,175.6,124.6,180.3,99.7,180.3z M99.7,53C74,53,40.6,62.2,31.2,88.1
	c-9.6,26.5-9.5,47.1,0.5,61.3c14,19.9,44.7,24.1,68,24.1c23.3,0,54.1-4.2,68-24.1c10-14.2,10.1-34.9,0.5-61.3
	C158.7,62.2,125.4,53,99.7,53z"/>
<g>
	<g>
		<path d="M149.3,125.1c0-4.7-3.8-8.6-8.6-8.6c-4.7,0-8.6,3.9-8.6,8.6c0,4.7,3.8,8.6,8.6,8.6C145.5,133.7,149.3,129.9,149.3,125.1z"
			/>
		<path d="M50,125.1c0-4.7,3.8-8.6,8.6-8.6c4.7,0,8.6,3.9,8.6,8.6c0,4.7-3.8,8.6-8.6,8.6C53.9,133.7,50,129.9,50,125.1z"/>
	</g>
</g>
<path d="M108.8,133.7c-4.3,2.8-5.1-0.5-5.1-4.2c0-3.2,0.3-7.1-3.9-7.1c-4.2,0-3.9,3.8-3.9,7.1c0,3.7-0.8,7-5.1,4.2
	c-4.3-2.8-8.6,3.1-3,6.5c4.8,3,10.6,0.8,12.1-0.7c1.5,1.5,7.3,3.7,12.1,0.7C117.3,136.8,113.1,130.9,108.8,133.7z"/>
<path d="M99.7,130.8"/>
<g>
	<line class="st0" x1="99.7" y1="91.7" x2="99.7" y2="53"/>
	<path d="M99.7,96.9c-2.9,0-5.2-2.3-5.2-5.2V53c0-2.9,2.3-5.2,5.2-5.2c2.9,0,5.2,2.3,5.2,5.2v38.7C104.9,94.6,102.6,96.9,99.7,96.9z
		"/>
</g>
<g>
	<polyline class="st0" points="88.7,83.1 99.7,83.1 110.7,83.1 	"/>
	<path d="M110.7,88.4h-22c-2.9,0-5.2-2.3-5.2-5.2c0-2.9,2.3-5.2,5.2-5.2h22c2.9,0,5.2,2.3,5.2,5.2C115.9,86,113.6,88.4,110.7,88.4z"
		/>
</g>
<g>
	<polyline class="st0" points="82.4,65.3 99.7,65.3 117,65.3 	"/>
	<path d="M117,70.5H82.4c-2.9,0-5.2-2.3-5.2-5.2c0-2.9,2.3-5.2,5.2-5.2H117c2.9,0,5.2,2.3,5.2,5.2C122.2,68.2,119.9,70.5,117,70.5z"
		/>
</g>
<g>
	<line class="st0" x1="160.2" y1="94.8" x2="168.4" y2="90.6"/>
	<path d="M160.2,100.1c-1.9,0-3.7-1-4.7-2.9c-1.3-2.6-0.3-5.7,2.3-7.1L166,86c2.6-1.3,5.7-0.3,7.1,2.3c1.3,2.6,0.3,5.7-2.3,7.1
		l-8.2,4.2C161.8,99.9,161,100.1,160.2,100.1z"/>
</g>
<g>
	<line class="st0" x1="167.1" y1="126.3" x2="174.3" y2="126.3"/>
	<path d="M174.3,131.5h-7.2c-2.9,0-5.2-2.3-5.2-5.2c0-2.9,2.3-5.2,5.2-5.2h7.2c2.9,0,5.2,2.3,5.2,5.2
		C179.5,129.2,177.2,131.5,174.3,131.5z"/>
</g>
<g>
	<line class="st0" x1="39.1" y1="94.8" x2="30.9" y2="90.6"/>
	<path d="M39.1,100.1c-0.8,0-1.6-0.2-2.4-0.6l-8.2-4.2C26,94,25,90.8,26.3,88.2c1.3-2.6,4.5-3.6,7.1-2.3l8.2,4.2
		c2.6,1.3,3.6,4.5,2.3,7.1C42.9,99,41.1,100.1,39.1,100.1z"/>
</g>
<g>
	<line class="st0" x1="32.3" y1="126.3" x2="25.1" y2="126.3"/>
	<path d="M32.3,131.5h-7.2c-2.9,0-5.2-2.3-5.2-5.2c0-2.9,2.3-5.2,5.2-5.2h7.2c2.9,0,5.2,2.3,5.2,5.2
		C37.5,129.2,35.2,131.5,32.3,131.5z"/>
</g>
</svg>
