<?xml version="1.0" encoding="utf-8"?>
<!-- Generator: Adobe Illustrator 23.0.1, SVG Export Plug-In . SVG Version: 6.00 Build 0)  -->
<svg version="1.1" xmlns="http://www.w3.org/2000/svg" xmlns:xlink="http://www.w3.org/1999/xlink" x="0px" y="0px"
	 viewBox="0 0 1500 1500" style="enable-background:new 0 0 1500 1500;" xml:space="preserve">
<style type="text/css">
	.st0{fill:#FFFFFF;}
	.st1{fill:#F9F4F5;}
	.st2{fill:#170114;}
	.st3{fill:#2C0024;}
	.st4{fill:#39022E;}
	.st5{fill:#590F4D;}
	.st6{fill:#751463;}
	.st7{fill:#FCB424;}
	.st8{font-family:'BebasNeue-Regular';}
	.st9{font-size:75px;}
	.st10{font-family:'Montserrat-Regular';}
	.st11{font-size:48px;}
	.st12{font-family:'Montserrat-Light';}
	.st13{font-size:36px;}
	.st14{font-family:'MyriadPro-Regular';}
	.st15{font-size:60px;}
</style>
<g id="Layer_2">
	<g>
		<rect x="1.5" y="0.5" class="st0" width="1498" height="530"/>
		<path d="M1499,1v529H2V1H1499 M1500,0H1v531h1499V0L1500,0z"/>
	</g>
</g>
<g id="Layer_1">
	<g>
		<rect x="1" class="st1" width="215" height="215"/>
	</g>
	<g>
		<rect x="216" class="st2" width="215" height="215"/>
	</g>
	<g>
		<rect x="431" class="st3" width="215" height="215"/>
	</g>
	<g>
		<rect x="643" class="st4" width="215" height="215"/>
	</g>
	<g>
		<rect x="858" class="st5" width="215" height="215"/>
	</g>
	<g>
		<rect x="1073" class="st6" width="215" height="215"/>
	</g>
	<rect x="1285" class="st7" width="215" height="215"/>
	<text transform="matrix(1 0 0 1 30.3335 315.6665)" class="st8 st9">Primary Font - Bebas neue Regular - google fonts</text>
	<text transform="matrix(1 0 0 1 29.9229 402.3589)"><tspan x="0" y="0" class="st10 st11">SubFont 1 - Montserrat (regular) - Google Fonts</tspan><tspan x="1129.1" y="0" class="st10 st9"> </tspan></text>
	<text transform="matrix(1 0 0 1 30.564 482.3076)" class="st12 st13">SubFont2 -Montserrat (light) - Google Fonts</text>
	<text transform="matrix(1 0 0 1 14.769 197.4614)" class="st14 st15">F9F4F5</text>
	<text transform="matrix(1 0 0 1 231.769 197.4614)" class="st1 st14 st15">170114</text>
	<text transform="matrix(1 0 0 1 1298.769 197.4614)" class="st14 st15">FCB424</text>
	<text transform="matrix(1 0 0 1 444.769 197.4614)" class="st1 st14 st15">2C0024</text>
	<text transform="matrix(1 0 0 1 657.769 197.4614)" class="st1 st14 st15">39022E</text>
	<text transform="matrix(1 0 0 1 869.769 197.4614)" class="st1 st14 st15">590F4D</text>
	<text transform="matrix(1 0 0 1 1085.769 197.4614)" class="st1 st14 st15">751463</text>
</g>
</svg>
