<?xml version="1.0" encoding="utf-8"?>
<!-- Generator: Adobe Illustrator 23.0.1, SVG Export Plug-In . SVG Version: 6.00 Build 0)  -->
<svg version="1.1" xmlns="http://www.w3.org/2000/svg" xmlns:xlink="http://www.w3.org/1999/xlink" x="0px" y="0px"
	 viewBox="0 0 1920 1080" style="enable-background:new 0 0 1920 1080;" xml:space="preserve">
<style type="text/css">
	.st0{fill:#170114;}
	.st1{fill:#39022E;}
	.st2{fill:#F9F4F5;}
	.st3{font-family:'BebasNeue-Regular';}
	.st4{font-size:80px;}
	.st5{font-family:'Montserrat-Regular';}
	.st6{font-size:24px;}
	.st7{stroke:#FCB424;stroke-width:2;stroke-miterlimit:10;}
	.st8{fill:none;}
	.st9{font-family:'Montserrat-Light';}
	.st10{font-size:17px;}
	.st11{letter-spacing:2;}
	.st12{letter-spacing:1;}
	.st13{fill:#741462;}
	.st14{font-size:30px;}
	.st15{font-size:40px;}
	.st16{display:none;}
	.st17{display:inline;fill:#FCB424;}
	.st18{display:inline;}
	.st19{fill:#FFFFFF;stroke:#170114;stroke-width:10;stroke-miterlimit:10;}
	.st20{display:inline;fill:#741462;}
	.st21{display:inline;fill:#2C0024;}
	.st22{display:inline;fill:#590F4D;}
	.st23{display:inline;fill:#F9F4F5;}
	.st24{font-size:25px;}
	.st25{display:inline;fill:none;}
	.st26{font-size:20px;}
	.st27{fill:#2C0024;}
	.st28{fill:#751463;}
	.st29{fill:#590F4D;}
	.st30{fill:#FCB424;}
	.st31{fill:none;stroke:#FCB424;stroke-width:3;stroke-miterlimit:10;}
	.st32{fill:none;stroke:#FCB424;stroke-width:4;stroke-miterlimit:10;}
	.st33{fill:none;stroke:#F9F4F5;stroke-width:3;stroke-miterlimit:10;}
	.st34{font-size:60px;}
</style>
<g id="backround">
	<rect class="st0" width="1920" height="1080"/>
</g>
<g id="movie-show">
	<rect x="346" y="92" class="st1" width="1409" height="988"/>
	<g>
		<rect x="381.5" y="128.6" class="st2" width="425" height="425.2"/>
		
			<image style="overflow:visible;" width="310" height="450" xlink:href="legally-blonde.jpg"  transform="matrix(0.8886 0 0 0.8886 455.8313 141.634)">
		</image>
	</g>
	<text transform="matrix(1 0 0 1 866.2173 185.8262)" class="st2 st3 st4">Movie Title</text>
	<text transform="matrix(1 0 0 1 1182.2749 185.4819)" class="st2 st5 st6">2001</text>
	<text transform="matrix(1 0 0 1 866.0435 237.9131)" class="st2 st5 st6">2h 35min</text>
	<g>
		<text transform="matrix(1 0 0 1 1165.9565 238.3911)" class="st2 st5 st6">Movie Director(s)</text>
	</g>
	<line class="st7" x1="866" y1="199" x2="1716" y2="199"/>
	<text transform="matrix(1 0 0 1 1029.0435 237.9131)" class="st2 st5 st6">Genere</text>
	<rect x="865.7" y="265.1" class="st8" width="850.3" height="155.9"/>
	<text transform="matrix(1 0 0 1 865.6958 277.7007)"><tspan x="0" y="0" class="st2 st9 st10">Lorem</tspan><tspan x="55.4" y="0" class="st2 st9 st10"> </tspan><tspan x="59.4" y="0" class="st2 st9 st10">ipsum</tspan><tspan x="112.9" y="0" class="st2 st9 st10"> </tspan><tspan x="116.9" y="0" class="st2 st9 st10">dolor</tspan><tspan x="160.6" y="0" class="st2 st9 st10"> </tspan><tspan x="164.5" y="0" class="st2 st9 st10">sit</tspan><tspan x="183.9" y="0" class="st2 st9 st10"> </tspan><tspan x="187.9" y="0" class="st2 st9 st10">amet</tspan><tspan x="232.8" y="0" class="st2 st9 st10"> </tspan><tspan x="236.7" y="0" class="st2 st9 st10">consectetur</tspan><tspan x="337.6" y="0" class="st2 st9 st10"> </tspan><tspan x="341.6" y="0" class="st2 st9 st10">adipisicing</tspan><tspan x="432.8" y="0" class="st2 st9 st10"> </tspan><tspan x="436.8" y="0" class="st2 st9 st10">elit.</tspan><tspan x="466" y="0" class="st2 st9 st10"> </tspan><tspan x="470" y="0" class="st2 st9 st10">Maxime</tspan><tspan x="537.6" y="0" class="st2 st9 st10"> </tspan><tspan x="541.6" y="0" class="st2 st9 st10">mollitia,</tspan><tspan x="608" y="0" class="st2 st9 st10"> </tspan><tspan x="612" y="0" class="st2 st9 st10">molestiae</tspan><tspan x="694.6" y="0" class="st2 st9 st10"> </tspan><tspan x="698.6" y="0" class="st2 st9 st10">quas</tspan><tspan x="739.5" y="0" class="st2 st9 st10"> </tspan><tspan x="743.5" y="0" class="st2 st9 st10">vel</tspan><tspan x="767" y="0" class="st2 st9 st10"> </tspan><tspan x="771" y="0" class="st2 st9 st10">sint</tspan><tspan x="801.8" y="0" class="st2 st9 st10"> </tspan><tspan x="805.8" y="0" class="st2 st9 st10">com</tspan><tspan x="843.8" y="0" class="st2 st9 st10">-</tspan><tspan x="0" y="20.4" class="st2 st9 st10">modi</tspan><tspan x="44.5" y="20.4" class="st2 st9 st10 st11"> </tspan><tspan x="51.8" y="20.4" class="st2 st9 st10">repudiandae</tspan><tspan x="160.3" y="20.4" class="st2 st9 st10 st11"> </tspan><tspan x="167.6" y="20.4" class="st2 st9 st10">consequuntur</tspan><tspan x="287.8" y="20.4" class="st2 st9 st10 st11"> </tspan><tspan x="295.1" y="20.4" class="st2 st9 st10">voluptatum</tspan><tspan x="394.8" y="20.4" class="st2 st9 st10 st11"> </tspan><tspan x="402.1" y="20.4" class="st2 st9 st10">laborumnumquam</tspan><tspan x="566.4" y="20.4" class="st2 st9 st10 st11"> </tspan><tspan x="573.6" y="20.4" class="st2 st9 st10">blanditiis</tspan><tspan x="650.6" y="20.4" class="st2 st9 st10 st11"> </tspan><tspan x="657.9" y="20.4" class="st2 st9 st10">harum</tspan><tspan x="715.4" y="20.4" class="st2 st9 st10 st11"> </tspan><tspan x="722.7" y="20.4" class="st2 st9 st10">quisquam</tspan><tspan x="808.9" y="20.4" class="st2 st9 st10 st11"> </tspan><tspan x="816.2" y="20.4" class="st2 st9 st10">eius </tspan><tspan x="0" y="40.8" class="st2 st9 st10">sed</tspan><tspan x="29.7" y="40.8" class="st2 st9 st10 st12"> </tspan><tspan x="35.7" y="40.8" class="st2 st9 st10">odit</tspan><tspan x="68.9" y="40.8" class="st2 st9 st10 st12"> </tspan><tspan x="74.9" y="40.8" class="st2 st9 st10">fugiat</tspan><tspan x="124.6" y="40.8" class="st2 st9 st10 st12"> </tspan><tspan x="130.6" y="40.8" class="st2 st9 st10">iusto</tspan><tspan x="171.8" y="40.8" class="st2 st9 st10 st12"> </tspan><tspan x="177.8" y="40.8" class="st2 st9 st10">fuga</tspan><tspan x="216.2" y="40.8" class="st2 st9 st10 st12"> </tspan><tspan x="222.2" y="40.8" class="st2 st9 st10">praesentium</tspan><tspan x="330.8" y="40.8" class="st2 st9 st10 st12"> </tspan><tspan x="336.8" y="40.8" class="st2 st9 st10">optio,</tspan><tspan x="384" y="40.8" class="st2 st9 st10 st12"> </tspan><tspan x="390" y="40.8" class="st2 st9 st10">eaque</tspan><tspan x="443" y="40.8" class="st2 st9 st10 st12"> </tspan><tspan x="449" y="40.8" class="st2 st9 st10">rerum!</tspan><tspan x="506.3" y="40.8" class="st2 st9 st10 st12"> </tspan><tspan x="512.3" y="40.8" class="st2 st9 st10">Provident</tspan><tspan x="594.9" y="40.8" class="st2 st9 st10 st12"> </tspan><tspan x="600.9" y="40.8" class="st2 st9 st10">similique</tspan><tspan x="677.8" y="40.8" class="st2 st9 st10 st12"> </tspan><tspan x="683.8" y="40.8" class="st2 st9 st10">accusantium</tspan><tspan x="794.1" y="40.8" class="st2 st9 st10 st12"> </tspan><tspan x="800.1" y="40.8" class="st2 st9 st10">nemo </tspan><tspan x="0" y="61.2" class="st2 st9 st10">autem.</tspan><tspan x="59.7" y="61.2" class="st2 st9 st10 st11"> </tspan><tspan x="66.3" y="61.2" class="st2 st9 st10">Veritatis</tspan><tspan x="135.3" y="61.2" class="st2 st9 st10 st11"> </tspan><tspan x="141.9" y="61.2" class="st2 st9 st10">obcaecati</tspan><tspan x="223.9" y="61.2" class="st2 st9 st10 st11"> </tspan><tspan x="230.6" y="61.2" class="st2 st9 st10">tenetur</tspan><tspan x="293.9" y="61.2" class="st2 st9 st10 st11"> </tspan><tspan x="300.5" y="61.2" class="st2 st9 st10">iure</tspan><tspan x="333.2" y="61.2" class="st2 st9 st10 st11"> </tspan><tspan x="339.8" y="61.2" class="st2 st9 st10">eius</tspan><tspan x="373.9" y="61.2" class="st2 st9 st10 st11"> </tspan><tspan x="380.5" y="61.2" class="st2 st9 st10">earum</tspan><tspan x="436.7" y="61.2" class="st2 st9 st10 st11"> </tspan><tspan x="443.3" y="61.2" class="st2 st9 st10">ut</tspan><tspan x="461.5" y="61.2" class="st2 st9 st10 st11"> </tspan><tspan x="468.1" y="61.2" class="st2 st9 st10">molestias</tspan><tspan x="548.7" y="61.2" class="st2 st9 st10 st11"> </tspan><tspan x="555.3" y="61.2" class="st2 st9 st10">architecto</tspan><tspan x="640.8" y="61.2" class="st2 st9 st10 st11"> </tspan><tspan x="647.5" y="61.2" class="st2 st9 st10">voluptate</tspan><tspan x="727.8" y="61.2" class="st2 st9 st10 st11"> </tspan><tspan x="734.5" y="61.2" class="st2 st9 st10">aliquam</tspan><tspan x="804.1" y="61.2" class="st2 st9 st10 st11"> </tspan><tspan x="810.7" y="61.2" class="st2 st9 st10">nihil, </tspan><tspan x="0" y="81.6" class="st2 st9 st10">eveniet</tspan><tspan x="62.1" y="81.6" class="st2 st9 st10 st12"> </tspan><tspan x="67.6" y="81.6" class="st2 st9 st10">aliquid</tspan><tspan x="125.2" y="81.6" class="st2 st9 st10 st12"> </tspan><tspan x="130.8" y="81.6" class="st2 st9 st10">culpa</tspan><tspan x="177.4" y="81.6" class="st2 st9 st10 st12"> </tspan><tspan x="183" y="81.6" class="st2 st9 st10">officia</tspan><tspan x="234.2" y="81.6" class="st2 st9 st10 st12"> </tspan><tspan x="239.8" y="81.6" class="st2 st9 st10">aut!</tspan><tspan x="272.1" y="81.6" class="st2 st9 st10 st12"> </tspan><tspan x="277.7" y="81.6" class="st2 st9 st10">Impedit</tspan><tspan x="345.1" y="81.6" class="st2 st9 st10 st12"> </tspan><tspan x="350.7" y="81.6" class="st2 st9 st10">sit</tspan><tspan x="370" y="81.6" class="st2 st9 st10 st12"> </tspan><tspan x="375.6" y="81.6" class="st2 st9 st10">sunt</tspan><tspan x="413.3" y="81.6" class="st2 st9 st10 st12"> </tspan><tspan x="418.9" y="81.6" class="st2 st9 st10">quaerat,</tspan><tspan x="488.5" y="81.6" class="st2 st9 st10 st12"> </tspan><tspan x="494.1" y="81.6" class="st2 st9 st10">odit,</tspan><tspan x="530.7" y="81.6" class="st2 st9 st10 st12"> </tspan><tspan x="536.3" y="81.6" class="st2 st9 st10">tenetur</tspan><tspan x="599.7" y="81.6" class="st2 st9 st10 st12"> </tspan><tspan x="605.2" y="81.6" class="st2 st9 st10">error,</tspan><tspan x="649.4" y="81.6" class="st2 st9 st10 st12"> </tspan><tspan x="655" y="81.6" class="st2 st9 st10">harum</tspan><tspan x="712.5" y="81.6" class="st2 st9 st10 st12"> </tspan><tspan x="718.1" y="81.6" class="st2 st9 st10">nesciunt</tspan><tspan x="791.2" y="81.6" class="st2 st9 st10 st12"> </tspan><tspan x="796.8" y="81.6" class="st2 st9 st10">ipsum </tspan><tspan x="0" y="102" class="st2 st9 st10">debitis</tspan><tspan x="56.9" y="102" class="st2 st9 st10"> </tspan><tspan x="60.6" y="102" class="st2 st9 st10">quas</tspan><tspan x="101.5" y="102" class="st2 st9 st10"> </tspan><tspan x="105.2" y="102" class="st2 st9 st10">aliquid.</tspan><tspan x="166.2" y="102" class="st2 st9 st10"> </tspan><tspan x="169.9" y="102" class="st2 st9 st10">Reprehenderit,</tspan><tspan x="296.5" y="102" class="st2 st9 st10"> </tspan><tspan x="300.3" y="102" class="st2 st9 st10">quia.</tspan><tspan x="340.9" y="102" class="st2 st9 st10"> </tspan><tspan x="344.6" y="102" class="st2 st9 st10">Quo</tspan><tspan x="380.8" y="102" class="st2 st9 st10"> </tspan><tspan x="384.5" y="102" class="st2 st9 st10">neque</tspan><tspan x="439.1" y="102" class="st2 st9 st10"> </tspan><tspan x="442.8" y="102" class="st2 st9 st10">error</tspan><tspan x="483.6" y="102" class="st2 st9 st10"> </tspan><tspan x="487.3" y="102" class="st2 st9 st10">repudiandae</tspan><tspan x="595.8" y="102" class="st2 st9 st10"> </tspan><tspan x="599.6" y="102" class="st2 st9 st10">fuga?</tspan><tspan x="647.6" y="102" class="st2 st9 st10"> </tspan><tspan x="651.3" y="102" class="st2 st9 st10">Ipsa</tspan><tspan x="685.8" y="102" class="st2 st9 st10"> </tspan><tspan x="689.6" y="102" class="st2 st9 st10">laudantium</tspan><tspan x="788.8" y="102" class="st2 st9 st10"> </tspan><tspan x="792.5" y="102" class="st2 st9 st10">moles</tspan><tspan x="843.8" y="102" class="st2 st9 st10">-</tspan><tspan x="0" y="122.4" class="st2 st9 st10">tias</tspan><tspan x="29.2" y="122.4" class="st2 st9 st10"> </tspan><tspan x="33.8" y="122.4" class="st2 st9 st10">eos</tspan><tspan x="62.6" y="122.4" class="st2 st9 st10">  </tspan><tspan x="71.7" y="122.4" class="st2 st9 st10">sapiente</tspan><tspan x="144.1" y="122.4" class="st2 st9 st10"> </tspan><tspan x="148.7" y="122.4" class="st2 st9 st10">officiis</tspan><tspan x="202.6" y="122.4" class="st2 st9 st10"> </tspan><tspan x="207.2" y="122.4" class="st2 st9 st10">modi</tspan><tspan x="251.7" y="122.4" class="st2 st9 st10"> </tspan><tspan x="256.2" y="122.4" class="st2 st9 st10">at</tspan><tspan x="272.9" y="122.4" class="st2 st9 st10"> </tspan><tspan x="277.5" y="122.4" class="st2 st9 st10">sunt</tspan><tspan x="315.2" y="122.4" class="st2 st9 st10"> </tspan><tspan x="319.7" y="122.4" class="st2 st9 st10">excepturi</tspan><tspan x="399" y="122.4" class="st2 st9 st10"> </tspan><tspan x="403.6" y="122.4" class="st2 st9 st10">expedita</tspan><tspan x="476.7" y="122.4" class="st2 st9 st10"> </tspan><tspan x="481.3" y="122.4" class="st2 st9 st10">sint?</tspan><tspan x="521.6" y="122.4" class="st2 st9 st10"> </tspan><tspan x="526.1" y="122.4" class="st2 st9 st10">Sed</tspan><tspan x="558.1" y="122.4" class="st2 st9 st10"> </tspan><tspan x="562.7" y="122.4" class="st2 st9 st10">quibusdam</tspan><tspan x="660.4" y="122.4" class="st2 st9 st10"> </tspan><tspan x="664.9" y="122.4" class="st2 st9 st10">recusandae</tspan><tspan x="763.6" y="122.4" class="st2 st9 st10"> </tspan><tspan x="768.2" y="122.4" class="st2 st9 st10">alias</tspan><tspan x="805" y="122.4" class="st2 st9 st10"> </tspan><tspan x="809.5" y="122.4" class="st2 st9 st10">error </tspan><tspan x="0" y="142.8" class="st2 st9 st10">harum</tspan><tspan x="57.5" y="142.8" class="st2 st9 st10"> </tspan><tspan x="61.9" y="142.8" class="st2 st9 st10">maxime</tspan><tspan x="131.4" y="142.8" class="st2 st9 st10"> </tspan><tspan x="135.9" y="142.8" class="st2 st9 st10">adipisci</tspan><tspan x="199.6" y="142.8" class="st2 st9 st10"> </tspan><tspan x="204" y="142.8" class="st2 st9 st10">amet</tspan><tspan x="248.9" y="142.8" class="st2 st9 st10"> </tspan><tspan x="253.4" y="142.8" class="st2 st9 st10">laborum.</tspan><tspan x="329.3" y="142.8" class="st2 st9 st10"> </tspan><tspan x="333.7" y="142.8" class="st2 st9 st10">Perspiciatis</tspan><tspan x="429.8" y="142.8" class="st2 st9 st10">  </tspan><tspan x="438.7" y="142.8" class="st2 st9 st10">minima</tspan><tspan x="505.1" y="142.8" class="st2 st9 st10"> </tspan><tspan x="509.5" y="142.8" class="st2 st9 st10">nesciunt</tspan><tspan x="582.7" y="142.8" class="st2 st9 st10"> </tspan><tspan x="587.1" y="142.8" class="st2 st9 st10">dolorem!</tspan><tspan x="663.3" y="142.8" class="st2 st9 st10"> </tspan><tspan x="667.7" y="142.8" class="st2 st9 st10">Officiis</tspan><tspan x="725.4" y="142.8" class="st2 st9 st10"> </tspan><tspan x="729.8" y="142.8" class="st2 st9 st10">iure</tspan><tspan x="762.5" y="142.8" class="st2 st9 st10"> </tspan><tspan x="766.9" y="142.8" class="st2 st9 st10">rerum</tspan><tspan x="819.9" y="142.8" class="st2 st9 st10"> </tspan><tspan x="824.3" y="142.8" class="st2 st9 st10">v</tspan><tspan x="843.8" y="142.8" class="st2 st9 st10">-</tspan></text>
	<rect x="381" y="573" class="st13" width="425" height="444"/>
	<rect x="396" y="588" class="st1" width="396" height="44"/>
	<text transform="matrix(1 0 0 1 412.478 620.3916)" class="st2 st3 st14">Similar Movies</text>
	<rect x="396" y="649" class="st1" width="396" height="106"/>
	<rect x="396" y="772" class="st1" width="396" height="106"/>
	<rect x="396" y="895" class="st1" width="396" height="106"/>
	<rect x="406" y="659" class="st2" width="60" height="85"/>
	<rect x="406" y="782" class="st2" width="60" height="85"/>
	<rect x="406" y="906" class="st2" width="60" height="85"/>
	<rect x="866" y="444" class="st13" width="850" height="217"/>
	<text transform="matrix(1 0 0 1 887.5215 490.5654)" class="st2 st3 st15">Group Name Ratings</text>
	<line class="st7" x1="880" y1="501" x2="1699" y2="501"/>
	<rect x="888" y="520" class="st1" width="121" height="121"/>
	<rect x="1404" y="520" class="st1" width="121" height="121"/>
	<rect x="1229" y="520" class="st1" width="121" height="121"/>
	<rect x="1575" y="520" class="st1" width="121" height="121"/>
	<rect x="1059" y="520" class="st1" width="121" height="121"/>
	<rect x="864" y="684" class="st13" width="850" height="157"/>
	<rect x="888" y="702" class="st1" width="121" height="121"/>
	<rect x="864" y="864" class="st13" width="850" height="157"/>
	<rect x="888" y="882" class="st1" width="121" height="121"/>
	<rect x="1029" y="740.1" class="st8" width="667" height="85.9"/>
	<text transform="matrix(1 0 0 1 1029 752.7007)"><tspan x="0" y="0" class="st2 st9 st10">Lorem</tspan><tspan x="55.4" y="0" class="st2 st9 st10"> </tspan><tspan x="59.1" y="0" class="st2 st9 st10">ipsum</tspan><tspan x="112.6" y="0" class="st2 st9 st10"> </tspan><tspan x="116.3" y="0" class="st2 st9 st10">dolor</tspan><tspan x="160" y="0" class="st2 st9 st10"> </tspan><tspan x="163.7" y="0" class="st2 st9 st10">sit</tspan><tspan x="183" y="0" class="st2 st9 st10"> </tspan><tspan x="186.7" y="0" class="st2 st9 st10">amet</tspan><tspan x="231.6" y="0" class="st2 st9 st10"> </tspan><tspan x="235.3" y="0" class="st2 st9 st10">consectetur</tspan><tspan x="336.2" y="0" class="st2 st9 st10"> </tspan><tspan x="339.9" y="0" class="st2 st9 st10">adipisicing</tspan><tspan x="431.1" y="0" class="st2 st9 st10"> </tspan><tspan x="434.8" y="0" class="st2 st9 st10">elit.</tspan><tspan x="464" y="0" class="st2 st9 st10"> </tspan><tspan x="467.7" y="0" class="st2 st9 st10">Maxime</tspan><tspan x="535.3" y="0" class="st2 st9 st10"> </tspan><tspan x="539" y="0" class="st2 st9 st10">mollitia,</tspan><tspan x="605.5" y="0" class="st2 st9 st10"> </tspan><tspan x="609.2" y="0" class="st2 st9 st10">moles</tspan><tspan x="660.5" y="0" class="st2 st9 st10">-</tspan><tspan x="0" y="20.4" class="st2 st9 st10">tiae</tspan><tspan x="31.3" y="20.4" class="st2 st9 st10 st12"> </tspan><tspan x="37.6" y="20.4" class="st2 st9 st10">quas</tspan><tspan x="78.5" y="20.4" class="st2 st9 st10 st12"> </tspan><tspan x="84.8" y="20.4" class="st2 st9 st10">vel</tspan><tspan x="108.3" y="20.4" class="st2 st9 st10 st12"> </tspan><tspan x="114.7" y="20.4" class="st2 st9 st10">sint</tspan><tspan x="145.4" y="20.4" class="st2 st9 st10 st12"> </tspan><tspan x="151.7" y="20.4" class="st2 st9 st10">commodi</tspan><tspan x="234.3" y="20.4" class="st2 st9 st10 st12"> </tspan><tspan x="240.7" y="20.4" class="st2 st9 st10">repudiandae</tspan><tspan x="349.2" y="20.4" class="st2 st9 st10 st12"> </tspan><tspan x="355.5" y="20.4" class="st2 st9 st10">consequuntur</tspan><tspan x="475.7" y="20.4" class="st2 st9 st10 st12"> </tspan><tspan x="482" y="20.4" class="st2 st9 st10">voluptatum</tspan><tspan x="581.7" y="20.4" class="st2 st9 st10 st12"> </tspan><tspan x="588" y="20.4" class="st2 st9 st10">laborum</tspan><tspan x="660.5" y="20.4" class="st2 st9 st10">-</tspan><tspan x="0" y="40.8" class="st2 st9 st10">numquam</tspan><tspan x="91.7" y="40.8" class="st2 st9 st10 st12"> </tspan><tspan x="97.1" y="40.8" class="st2 st9 st10">blanditiis</tspan><tspan x="174.1" y="40.8" class="st2 st9 st10 st12"> </tspan><tspan x="179.4" y="40.8" class="st2 st9 st10">harum</tspan><tspan x="236.9" y="40.8" class="st2 st9 st10 st12"> </tspan><tspan x="242.3" y="40.8" class="st2 st9 st10">quisquam</tspan><tspan x="328.6" y="40.8" class="st2 st9 st10 st12"> </tspan><tspan x="333.9" y="40.8" class="st2 st9 st10">eius</tspan><tspan x="368" y="40.8" class="st2 st9 st10 st12"> </tspan><tspan x="373.4" y="40.8" class="st2 st9 st10">sed</tspan><tspan x="403.1" y="40.8" class="st2 st9 st10 st12"> </tspan><tspan x="408.5" y="40.8" class="st2 st9 st10">odit</tspan><tspan x="441.7" y="40.8" class="st2 st9 st10 st12"> </tspan><tspan x="447.1" y="40.8" class="st2 st9 st10">fugiat</tspan><tspan x="496.8" y="40.8" class="st2 st9 st10 st12"> </tspan><tspan x="502.1" y="40.8" class="st2 st9 st10">iusto</tspan><tspan x="543.4" y="40.8" class="st2 st9 st10 st12"> </tspan><tspan x="548.8" y="40.8" class="st2 st9 st10">fuga</tspan><tspan x="587.2" y="40.8" class="st2 st9 st10 st12"> </tspan><tspan x="592.6" y="40.8" class="st2 st9 st10">praesen</tspan><tspan x="660.5" y="40.8" class="st2 st9 st10">-</tspan><tspan x="0" y="61.2" class="st2 st9 st10">tium optio, eaque rerum! Provident similique accusantium </tspan></text>
	<rect x="1029" y="925.1" class="st8" width="667" height="85.9"/>
	<text transform="matrix(1 0 0 1 1029 937.7007)"><tspan x="0" y="0" class="st2 st9 st10">Lorem</tspan><tspan x="55.4" y="0" class="st2 st9 st10"> </tspan><tspan x="59.1" y="0" class="st2 st9 st10">ipsum</tspan><tspan x="112.6" y="0" class="st2 st9 st10"> </tspan><tspan x="116.3" y="0" class="st2 st9 st10">dolor</tspan><tspan x="160" y="0" class="st2 st9 st10"> </tspan><tspan x="163.7" y="0" class="st2 st9 st10">sit</tspan><tspan x="183" y="0" class="st2 st9 st10"> </tspan><tspan x="186.7" y="0" class="st2 st9 st10">amet</tspan><tspan x="231.6" y="0" class="st2 st9 st10"> </tspan><tspan x="235.3" y="0" class="st2 st9 st10">consectetur</tspan><tspan x="336.2" y="0" class="st2 st9 st10"> </tspan><tspan x="339.9" y="0" class="st2 st9 st10">adipisicing</tspan><tspan x="431.1" y="0" class="st2 st9 st10"> </tspan><tspan x="434.8" y="0" class="st2 st9 st10">elit.</tspan><tspan x="464" y="0" class="st2 st9 st10"> </tspan><tspan x="467.7" y="0" class="st2 st9 st10">Maxime</tspan><tspan x="535.3" y="0" class="st2 st9 st10"> </tspan><tspan x="539" y="0" class="st2 st9 st10">mollitia,</tspan><tspan x="605.5" y="0" class="st2 st9 st10"> </tspan><tspan x="609.2" y="0" class="st2 st9 st10">moles</tspan><tspan x="660.5" y="0" class="st2 st9 st10">-</tspan><tspan x="0" y="20.4" class="st2 st9 st10">tiae</tspan><tspan x="31.3" y="20.4" class="st2 st9 st10 st12"> </tspan><tspan x="37.6" y="20.4" class="st2 st9 st10">quas</tspan><tspan x="78.5" y="20.4" class="st2 st9 st10 st12"> </tspan><tspan x="84.8" y="20.4" class="st2 st9 st10">vel</tspan><tspan x="108.3" y="20.4" class="st2 st9 st10 st12"> </tspan><tspan x="114.7" y="20.4" class="st2 st9 st10">sint</tspan><tspan x="145.4" y="20.4" class="st2 st9 st10 st12"> </tspan><tspan x="151.7" y="20.4" class="st2 st9 st10">commodi</tspan><tspan x="234.3" y="20.4" class="st2 st9 st10 st12"> </tspan><tspan x="240.7" y="20.4" class="st2 st9 st10">repudiandae</tspan><tspan x="349.2" y="20.4" class="st2 st9 st10 st12"> </tspan><tspan x="355.5" y="20.4" class="st2 st9 st10">consequuntur</tspan><tspan x="475.7" y="20.4" class="st2 st9 st10 st12"> </tspan><tspan x="482" y="20.4" class="st2 st9 st10">voluptatum</tspan><tspan x="581.7" y="20.4" class="st2 st9 st10 st12"> </tspan><tspan x="588" y="20.4" class="st2 st9 st10">laborum</tspan><tspan x="660.5" y="20.4" class="st2 st9 st10">-</tspan><tspan x="0" y="40.8" class="st2 st9 st10">numquam</tspan><tspan x="91.7" y="40.8" class="st2 st9 st10 st12"> </tspan><tspan x="97.1" y="40.8" class="st2 st9 st10">blanditiis</tspan><tspan x="174.1" y="40.8" class="st2 st9 st10 st12"> </tspan><tspan x="179.4" y="40.8" class="st2 st9 st10">harum</tspan><tspan x="236.9" y="40.8" class="st2 st9 st10 st12"> </tspan><tspan x="242.3" y="40.8" class="st2 st9 st10">quisquam</tspan><tspan x="328.6" y="40.8" class="st2 st9 st10 st12"> </tspan><tspan x="333.9" y="40.8" class="st2 st9 st10">eius</tspan><tspan x="368" y="40.8" class="st2 st9 st10 st12"> </tspan><tspan x="373.4" y="40.8" class="st2 st9 st10">sed</tspan><tspan x="403.1" y="40.8" class="st2 st9 st10 st12"> </tspan><tspan x="408.5" y="40.8" class="st2 st9 st10">odit</tspan><tspan x="441.7" y="40.8" class="st2 st9 st10 st12"> </tspan><tspan x="447.1" y="40.8" class="st2 st9 st10">fugiat</tspan><tspan x="496.8" y="40.8" class="st2 st9 st10 st12"> </tspan><tspan x="502.1" y="40.8" class="st2 st9 st10">iusto</tspan><tspan x="543.4" y="40.8" class="st2 st9 st10 st12"> </tspan><tspan x="548.8" y="40.8" class="st2 st9 st10">fuga</tspan><tspan x="587.2" y="40.8" class="st2 st9 st10 st12"> </tspan><tspan x="592.6" y="40.8" class="st2 st9 st10">praesen</tspan><tspan x="660.5" y="40.8" class="st2 st9 st10">-</tspan><tspan x="0" y="61.2" class="st2 st9 st10">tium optio, eaque rerum! Provident similique accusantium </tspan></text>
	<text transform="matrix(1 0 0 1 1029.5215 725.5654)" class="st2 st3 st14">Member Name         5/5</text>
	<text transform="matrix(1 0 0 1 1029.5215 904.5654)" class="st2 st3 st14">Member Name         5/5</text>
</g>
<g id="group-page" class="st16">
	<circle class="st17" cx="1810.5" cy="944.5" r="42.5"/>
	<g class="st18">
		<line class="st19" x1="1786" y1="945" x2="1836" y2="945"/>
		<line class="st19" x1="1811" y1="920" x2="1811" y2="970"/>
	</g>
	<rect x="383" y="125" class="st20" width="1307" height="189"/>
	<rect x="402" y="143" class="st21" width="115" height="152"/>
	<rect x="535" y="143" class="st22" width="502" height="48"/>
	<rect x="535" y="197" class="st20" width="1135" height="60"/>
	<rect x="1628" y="143" class="st17" width="42" height="42"/>
	<text transform="matrix(1 0 0 1 548.7827 180.6958)" class="st23 st3 st15">Movie Title</text>
	<rect x="535" y="261" class="st22" width="1135" height="36"/>
	<text transform="matrix(1 0 0 1 553.522 289.1309)" class="st23 st5 st24">IMBD Rating 5/5</text>
	<text transform="matrix(1 0 0 1 897.522 289.1309)" class="st23 st5 st24">Rotten Tomatoes Rating 5/5</text>
	<text transform="matrix(1 0 0 1 1355.522 289.1309)" class="st23 st5 st24">Your Groups Rating 0/5</text>
	<rect x="548" y="206.7" class="st25" width="1115.2" height="42.3"/>
	<text transform="matrix(1 0 0 1 548 221.4922)" class="st23 st9 st26">Lorem ipsum dolor sit amet, consectetuer adipiscing elit, sed diam nonummy nibh euismod tincidunt ut lao </text>
	<g class="st18">
		<rect x="386" y="565" class="st2" width="1307" height="189"/>
		<rect x="405" y="583" class="st27" width="115" height="152"/>
		<rect x="538" y="704" class="st28" width="356" height="31"/>
		<rect x="931" y="704" class="st28" width="356" height="31"/>
		<rect x="1317" y="704" class="st28" width="356" height="31"/>
		<rect x="538" y="583" class="st29" width="502" height="48"/>
		<rect x="538" y="637" class="st29" width="1135" height="60"/>
		<rect x="1631" y="583" class="st30" width="42" height="42"/>
		<text transform="matrix(1 0 0 1 551.7827 620.6958)" class="st2 st3 st15">Movie Title</text>
		<text transform="matrix(1 0 0 1 552.522 726.1309)" class="st2 st5 st26">IMBD Rating 5/5</text>
		<text transform="matrix(1 0 0 1 944.522 726.1309)" class="st2 st5 st26">Rotten Tomatoes Rating 5/5</text>
		<text transform="matrix(1 0 0 1 1328.522 726.1309)" class="st2 st5 st26">Your Groups Rating 0/5</text>
		<rect x="551" y="646.7" class="st8" width="1115.2" height="42.3"/>
		<text transform="matrix(1 0 0 1 551 661.4922)" class="st2 st9 st26">Lorem ipsum dolor sit amet, consectetuer adipiscing elit, sed diam nonummy nibh euismod tincidunt ut lao </text>
	</g>
	<g class="st18">
		<rect x="384" y="785" class="st2" width="1307" height="189"/>
		<rect x="403" y="803" class="st27" width="115" height="152"/>
		<rect x="536" y="924" class="st28" width="356" height="31"/>
		<rect x="929" y="924" class="st28" width="356" height="31"/>
		<rect x="1315" y="924" class="st28" width="356" height="31"/>
		<rect x="536" y="803" class="st29" width="502" height="48"/>
		<rect x="536" y="857" class="st29" width="1135" height="60"/>
		<rect x="1629" y="803" class="st30" width="42" height="42"/>
		<text transform="matrix(1 0 0 1 549.7827 840.6958)" class="st2 st3 st15">Movie Title</text>
		<text transform="matrix(1 0 0 1 550.522 946.1309)" class="st2 st5 st26">IMBD Rating 5/5</text>
		<text transform="matrix(1 0 0 1 942.522 946.1309)" class="st2 st5 st26">Rotten Tomatoes Rating 5/5</text>
		<text transform="matrix(1 0 0 1 1326.522 946.1309)" class="st2 st5 st26">Your Groups Rating 0/5</text>
		<rect x="549" y="866.7" class="st8" width="1115.2" height="42.3"/>
		<text transform="matrix(1 0 0 1 549 881.4922)" class="st2 st9 st26">Lorem ipsum dolor sit amet, consectetuer adipiscing elit, sed diam nonummy nibh euismod tincidunt ut lao </text>
	</g>
	<rect x="823" y="269" class="st17" width="8" height="20"/>
	<rect x="1303" y="269" class="st17" width="8" height="20"/>
	<rect x="385" y="345" class="st20" width="1307" height="189"/>
	<rect x="404" y="363" class="st21" width="115" height="152"/>
	<rect x="537" y="363" class="st22" width="502" height="48"/>
	<rect x="537" y="417" class="st20" width="1135" height="60"/>
	<rect x="1630" y="363" class="st17" width="42" height="42"/>
	<text transform="matrix(1 0 0 1 550.7827 400.6958)" class="st23 st3 st15">Movie Title</text>
	<rect x="537" y="481" class="st22" width="1135" height="36"/>
	<text transform="matrix(1 0 0 1 554.522 509.1309)" class="st23 st5 st24">IMBD Rating 5/5</text>
	<text transform="matrix(1 0 0 1 899.522 509.1309)" class="st23 st5 st24">Rotten Tomatoes Rating 5/5</text>
	<text transform="matrix(1 0 0 1 1357.522 509.1309)" class="st23 st5 st24">Your Groups Rating 0/5</text>
	<rect x="550" y="426.7" class="st25" width="1115.2" height="42.3"/>
	<text transform="matrix(1 0 0 1 550 441.4922)" class="st23 st9 st26">Lorem ipsum dolor sit amet, consectetuer adipiscing elit, sed diam nonummy nibh euismod tincidunt ut lao </text>
	<rect x="825" y="489" class="st17" width="8" height="20"/>
	<rect x="1304" y="489" class="st17" width="8" height="20"/>
</g>
<g id="side-bar">
	<g>
		<rect y="92" class="st27" width="294" height="988"/>
	</g>
	<rect x="23" y="125" class="st13" width="249" height="64"/>
	<rect x="23" y="219" class="st1" width="249" height="43"/>
	<line class="st31" x1="23" y1="262" x2="272" y2="262"/>
	<rect x="23" y="298" class="st1" width="249" height="43"/>
	<line class="st31" x1="23" y1="341" x2="272" y2="341"/>
	<rect x="23" y="378" class="st1" width="249" height="43"/>
	<line class="st32" x1="23" y1="421" x2="272" y2="421"/>
	<rect x="23" y="458" class="st1" width="249" height="43"/>
	<line class="st32" x1="23" y1="501" x2="272" y2="501"/>
	<rect x="23" y="538" class="st1" width="249" height="43"/>
	<line class="st32" x1="23" y1="581" x2="272" y2="581"/>
	<rect x="22" y="618" class="st1" width="249" height="43"/>
	<line class="st32" x1="22" y1="661" x2="271" y2="661"/>
	<rect x="22" y="698" class="st1" width="249" height="43"/>
	<line class="st32" x1="22" y1="741" x2="271" y2="741"/>
	<rect x="23" y="778" class="st1" width="249" height="43"/>
	<line class="st32" x1="23" y1="821" x2="272" y2="821"/>
	<rect x="23" y="858" class="st1" width="249" height="43"/>
	<line class="st32" x1="23" y1="901" x2="272" y2="901"/>
	<text transform="matrix(0.9557 0 0 1 38.1431 167.0918)" class="st2 st3 st14">group members</text>
	<line class="st33" x1="233" y1="145.5" x2="254.5" y2="145.5"/>
	<line class="st33" x1="233" y1="156.5" x2="254.5" y2="156.5"/>
	<line class="st33" x1="233" y1="167.5" x2="254.5" y2="167.5"/>
</g>
<g id="nav-bar">
	<g>
		<rect y="-1" class="st29" width="1920" height="93"/>
	</g>
	<rect x="1846" y="20" class="st30" width="52" height="52"/>
	<rect x="10" y="77" class="st30" width="294" height="4"/>
	<text transform="matrix(1 0 0 1 22.7827 64.6958)" class="st2 st3 st34">Movie Fridays</text>
</g>
</svg>
