<?xml version="1.0" encoding="utf-8"?>
<!-- Generator: Adobe Illustrator 23.0.1, SVG Export Plug-In . SVG Version: 6.00 Build 0)  -->
<svg version="1.1" xmlns="http://www.w3.org/2000/svg" xmlns:xlink="http://www.w3.org/1999/xlink" x="0px" y="0px"
	 viewBox="0 0 1920 1080" style="enable-background:new 0 0 1920 1080;" xml:space="preserve">
<style type="text/css">
	.st0{fill:#170114;}
	.st1{fill:#590F4D;}
	.st2{fill:#F9F4F5;}
	.st3{font-family:'BebasNeue-Regular';}
	.st4{font-size:60px;}
	.st5{fill:#FCB424;}
	.st6{fill:#FFFFFF;stroke:#170114;stroke-width:10;stroke-miterlimit:10;}
	.st7{fill:#741462;}
	.st8{fill:#2C0024;}
	.st9{font-size:40px;}
	.st10{font-family:'Montserrat-Regular';}
	.st11{font-size:25px;}
	.st12{fill:none;}
	.st13{font-family:'Montserrat-Light';}
	.st14{font-size:20px;}
	.st15{fill:#39022E;}
	.st16{fill:none;stroke:#FCB424;stroke-width:3;stroke-miterlimit:10;}
	.st17{fill:none;stroke:#FCB424;stroke-width:4;stroke-miterlimit:10;}
	.st18{font-size:30px;}
	.st19{fill:none;stroke:#F9F4F5;stroke-width:3;stroke-miterlimit:10;}
</style>
<g id="nav-bar-backround">
	<rect class="st0" width="1920" height="1080"/>
	<g>
		<rect y="-1" class="st1" width="1920" height="93"/>
	</g>
	<text transform="matrix(1 0 0 1 22.7827 64.6958)" class="st2 st3 st4">Movie Fridays</text>
	<rect x="10" y="77" class="st5" width="294" height="4"/>
	<rect x="1846" y="20" class="st5" width="52" height="52"/>
</g>
<g id="Layer_1">
	<circle class="st5" cx="1810.5" cy="944.5" r="42.5"/>
	<g>
		<line class="st6" x1="1786" y1="945" x2="1836" y2="945"/>
		<line class="st6" x1="1811" y1="920" x2="1811" y2="970"/>
	</g>
	<rect x="383" y="125" class="st7" width="1307" height="189"/>
	<rect x="402" y="143" class="st8" width="115" height="152"/>
	<rect x="535" y="143" class="st1" width="502" height="48"/>
	<rect x="535" y="197" class="st7" width="1135" height="60"/>
	<rect x="1628" y="143" class="st5" width="42" height="42"/>
	<text transform="matrix(1 0 0 1 548.7827 180.6958)" class="st2 st3 st9">Movie Title</text>
	<rect x="535" y="261" class="st1" width="1135" height="36"/>
	<text transform="matrix(1 0 0 1 553.522 289.1309)" class="st2 st10 st11">IMBD Rating 5/5</text>
	<text transform="matrix(1 0 0 1 897.522 289.1309)" class="st2 st10 st11">Rotten Tomatoes Rating 5/5</text>
	<text transform="matrix(1 0 0 1 1355.522 289.1309)" class="st2 st10 st11">Your Groups Rating 0/5</text>
	<rect x="548" y="206.7" class="st12" width="1115.2" height="42.3"/>
	<text transform="matrix(1 0 0 1 548 221.4922)" class="st2 st13 st14">Lorem ipsum dolor sit amet, consectetuer adipiscing elit, sed diam nonummy nibh euismod tincidunt ut lao </text>
	<rect x="823" y="269" class="st5" width="8" height="20"/>
	<rect x="1303" y="269" class="st5" width="8" height="20"/>
	<rect x="385" y="345" class="st7" width="1307" height="189"/>
	<rect x="404" y="363" class="st8" width="115" height="152"/>
	<rect x="537" y="363" class="st1" width="502" height="48"/>
	<rect x="537" y="417" class="st7" width="1135" height="60"/>
	<rect x="1630" y="363" class="st5" width="42" height="42"/>
	<text transform="matrix(1 0 0 1 550.7827 400.6958)" class="st2 st3 st9">Movie Title</text>
	<rect x="537" y="481" class="st1" width="1135" height="36"/>
	<text transform="matrix(1 0 0 1 554.522 509.1309)" class="st2 st10 st11">IMBD Rating 5/5</text>
	<text transform="matrix(1 0 0 1 899.522 509.1309)" class="st2 st10 st11">Rotten Tomatoes Rating 5/5</text>
	<text transform="matrix(1 0 0 1 1357.522 509.1309)" class="st2 st10 st11">Your Groups Rating 0/5</text>
	<rect x="550" y="426.7" class="st12" width="1115.2" height="42.3"/>
	<text transform="matrix(1 0 0 1 550 441.4922)" class="st2 st13 st14">Lorem ipsum dolor sit amet, consectetuer adipiscing elit, sed diam nonummy nibh euismod tincidunt ut lao </text>
	<rect x="825" y="489" class="st5" width="8" height="20"/>
	<rect x="1304" y="489" class="st5" width="8" height="20"/>
	<rect x="385" y="567" class="st7" width="1307" height="189"/>
	<rect x="404" y="585" class="st8" width="115" height="152"/>
	<rect x="537" y="585" class="st1" width="502" height="48"/>
	<rect x="537" y="639" class="st7" width="1135" height="60"/>
	<rect x="1630" y="585" class="st5" width="42" height="42"/>
	<text transform="matrix(1 0 0 1 550.7827 622.6958)" class="st2 st3 st9">Movie Title</text>
	<rect x="537" y="703" class="st1" width="1135" height="36"/>
	<text transform="matrix(1 0 0 1 555.522 731.1309)" class="st2 st10 st11">IMBD Rating 5/5</text>
	<text transform="matrix(1 0 0 1 899.522 731.1309)" class="st2 st10 st11">Rotten Tomatoes Rating 5/5</text>
	<text transform="matrix(1 0 0 1 1357.522 731.1309)" class="st2 st10 st11">Your Groups Rating 0/5</text>
	<rect x="550" y="648.7" class="st12" width="1115.2" height="42.3"/>
	<text transform="matrix(1 0 0 1 550 663.4922)" class="st2 st13 st14">Lorem ipsum dolor sit amet, consectetuer adipiscing elit, sed diam nonummy nibh euismod tincidunt ut lao </text>
	<rect x="825" y="711" class="st5" width="8" height="20"/>
	<rect x="1305" y="711" class="st5" width="8" height="20"/>
	<rect x="387" y="787" class="st7" width="1307" height="189"/>
	<rect x="406" y="805" class="st8" width="115" height="152"/>
	<rect x="539" y="805" class="st1" width="502" height="48"/>
	<rect x="539" y="859" class="st7" width="1135" height="60"/>
	<rect x="1632" y="805" class="st5" width="42" height="42"/>
	<text transform="matrix(1 0 0 1 552.7827 842.6958)" class="st2 st3 st9">Movie Title</text>
	<rect x="539" y="923" class="st1" width="1135" height="36"/>
	<text transform="matrix(1 0 0 1 556.522 951.1309)" class="st2 st10 st11">IMBD Rating 5/5</text>
	<text transform="matrix(1 0 0 1 901.522 951.1309)" class="st2 st10 st11">Rotten Tomatoes Rating 5/5</text>
	<text transform="matrix(1 0 0 1 1359.522 951.1309)" class="st2 st10 st11">Your Groups Rating 0/5</text>
	<rect x="552" y="868.7" class="st12" width="1115.2" height="42.3"/>
	<text transform="matrix(1 0 0 1 552 883.4922)" class="st2 st13 st14">Lorem ipsum dolor sit amet, consectetuer adipiscing elit, sed diam nonummy nibh euismod tincidunt ut lao </text>
	<rect x="827" y="931" class="st5" width="8" height="20"/>
	<rect x="1306" y="931" class="st5" width="8" height="20"/>
</g>
<g id="side-bar">
	<g>
		<rect y="92" class="st8" width="294" height="988"/>
	</g>
	<rect x="23" y="125" class="st7" width="249" height="64"/>
	<rect x="23" y="219" class="st15" width="249" height="43"/>
	<line class="st16" x1="23" y1="262" x2="272" y2="262"/>
	<rect x="23" y="298" class="st15" width="249" height="43"/>
	<line class="st16" x1="23" y1="341" x2="272" y2="341"/>
	<rect x="23" y="378" class="st15" width="249" height="43"/>
	<line class="st17" x1="23" y1="421" x2="272" y2="421"/>
	<rect x="23" y="458" class="st15" width="249" height="43"/>
	<line class="st17" x1="23" y1="501" x2="272" y2="501"/>
	<rect x="23" y="538" class="st15" width="249" height="43"/>
	<line class="st17" x1="23" y1="581" x2="272" y2="581"/>
	<rect x="22" y="618" class="st15" width="249" height="43"/>
	<line class="st17" x1="22" y1="661" x2="271" y2="661"/>
	<rect x="22" y="698" class="st15" width="249" height="43"/>
	<line class="st17" x1="22" y1="741" x2="271" y2="741"/>
	<rect x="23" y="778" class="st15" width="249" height="43"/>
	<line class="st17" x1="23" y1="821" x2="272" y2="821"/>
	<rect x="23" y="858" class="st15" width="249" height="43"/>
	<line class="st17" x1="23" y1="901" x2="272" y2="901"/>
	<text transform="matrix(0.9557 0 0 1 38.1431 167.0918)" class="st2 st3 st18">group members</text>
	<line class="st19" x1="233" y1="145.5" x2="254.5" y2="145.5"/>
	<line class="st19" x1="233" y1="156.5" x2="254.5" y2="156.5"/>
	<line class="st19" x1="233" y1="167.5" x2="254.5" y2="167.5"/>
</g>
</svg>
