<?xml version="1.0" encoding="utf-8"?>
<!-- Generator: Adobe Illustrator 23.0.1, SVG Export Plug-In . SVG Version: 6.00 Build 0)  -->
<svg version="1.1" id="Layer_1" xmlns="http://www.w3.org/2000/svg" xmlns:xlink="http://www.w3.org/1999/xlink" x="0px" y="0px"
	 viewBox="0 0 200 200" style="enable-background:new 0 0 200 200;" xml:space="preserve">
<style type="text/css">
	.st0{fill:#FFFFFF;}
</style>
<g>
	<g>
		<path class="st0" d="M166.1,78.8c-9-24.8-40.1-34.4-66-34.4c-25.9,0-56.9,9.6-66,34.4c-24,65.8,20.1,82.8,66,82.8
			C146,161.6,190.1,144.5,166.1,78.8z"/>
		<path d="M100.2,164.7c-22.9,0-53.3-4.3-67.7-24.9c-10.4-14.8-10.8-35.7-1.2-62.1c9.8-26.9,43.2-36.4,68.9-36.4
			c25.6,0,59.1,9.5,68.9,36.4c9.6,26.4,9.2,47.3-1.2,62.1C153.5,160.4,123.1,164.7,100.2,164.7z M100.2,47.5
			c-23.7,0-54.4,8.5-63.1,32.4c-8.9,24.4-8.7,43.4,0.4,56.5c12.9,18.4,41.2,22.2,62.7,22.2s49.8-3.9,62.7-22.2
			c9.2-13.1,9.3-32.1,0.4-56.5C154.5,56,123.8,47.5,100.2,47.5z"/>
	</g>
	<path d="M98.7,119.1"/>
	<path d="M147.1,114c0-4.4-3.5-7.9-7.9-7.9c-4.4,0-7.9,3.5-7.9,7.9c0,4.4,3.5,7.9,7.9,7.9C143.6,121.9,147.1,118.3,147.1,114z"/>
	<path d="M55.7,114c0-4.4,3.5-7.9,7.9-7.9c4.4,0,7.9,3.5,7.9,7.9c0,4.4-3.5,7.9-7.9,7.9C59.2,121.9,55.7,118.3,55.7,114z"/>
	<path d="M100.2,164.7c-22.9,0-53.3-4.3-67.7-24.9c-10.4-14.8-10.8-35.7-1.2-62.1c9.8-26.9,43.2-36.4,68.9-36.4
		c25.6,0,59.1,9.5,68.9,36.4c9.6,26.4,9.2,47.3-1.2,62.1C153.5,160.4,123.1,164.7,100.2,164.7z M100.2,47.5
		c-23.7,0-54.4,8.5-63.1,32.4c-8.9,24.4-8.7,43.4,0.4,56.5c12.9,18.4,41.2,22.2,62.7,22.2s49.8-3.9,62.7-22.2
		c9.2-13.1,9.3-32.1,0.4-56.5C154.5,56,123.8,47.5,100.2,47.5z"/>
	<g>
		<defs>
			<path id="SVGID_1_" d="M166.1,78.8c-9-24.8-40.1-34.4-66-34.4c-25.9,0-56.9,9.6-66,34.4c-24,65.8,20.1,82.8,66,82.8
				C146,161.6,190.1,144.5,166.1,78.8z"/>
		</defs>
		<clipPath id="SVGID_2_">
			<use xlink:href="#SVGID_1_"  style="overflow:visible;"/>
		</clipPath>
	</g>
	<g>
		<path d="M109.6,121.7c-3.9,2.6-4.7-0.5-4.7-3.9c0-3,0.2-6.5-3.6-6.5c-3.8,0-3.6,3.5-3.6,6.5c0,3.4-0.7,6.4-4.7,3.9
			c-3.9-2.6-7.8,2.9-2.8,6c4.4,2.7,9.7,0.7,11-0.7c1.3,1.4,6.6,3.4,11,0.7C117.4,124.6,113.5,119.2,109.6,121.7z"/>
	</g>
	<path d="M106.6,111.1c-1.2-1.4-3.3-2-5.3-2l0,0c-2,0-4,0.6-5.3,2c-2.3,2.5-2.3,6.8,5.1,8.7h0.4
		C108.9,117.9,108.9,113.6,106.6,111.1z"/>
	<polyline class="st0" points="128.1,57.1 137.1,44.4 160.2,55.2 141.6,74.9 	"/>
	<g>
		<g>
			<path class="st0" d="M131.4,49.2c0,0,8-11.4,16.1-11.4c14.8,0,25.5-0.1,30.6,6.6c8.6,11.4,21,44.2,14.8,51.5
				c-3.4,3.9-27.8,3.5-36.5-7c-4-4.8-9.3-15.8-6.3-30.6L131.4,49.2z"/>
			<path d="M182.7,101.2c-0.1,0-0.3,0-0.4,0c-9.1-0.1-22-2.8-28.3-10.4c-5.3-6.4-9.9-18.4-7-33.2c0.3-1.7,2-2.8,3.6-2.4
				c1.7,0.3,2.8,1.9,2.4,3.6c-2.5,12.6,1.5,23,5.7,28c3.2,3.8,9.7,6.7,17.7,7.8c7.5,1,13.1,0,14.2-0.8c4-4.9-5.4-35-14.9-47.6
				c-4.1-5.3-13.8-5.4-27.3-5.4l-0.9,0c0,0,0,0,0,0c-5.3,0-11.6,7.3-13.6,10.1c-1,1.4-2.9,1.7-4.3,0.8c-1.4-1-1.7-2.9-0.7-4.3
				c0.9-1.3,9.2-12.7,18.6-12.7c0,0,0,0,0,0h0.9c15.2,0,26.2,0.1,32.1,7.8c8.2,10.8,22.7,45.9,14.7,55.3
				C192.9,100.6,187.2,101.2,182.7,101.2z"/>
		</g>
	</g>
	<polygon class="st0" points="72.3,57.1 63.2,44.4 40.1,55.2 58.7,74.9 	"/>
	<g>
		<g>
			<path class="st0" d="M68.9,49.2c0,0-8-11.4-16.1-11.4c-14.8,0-25.5-0.1-30.6,6.6c-8.6,11.4-21,44.2-14.8,51.5
				c3.4,3.9,27.8,3.5,36.5-7c4-4.8,9.3-15.8,6.3-30.6L68.9,49.2z"/>
			<path d="M17.6,101.2c-4.5,0-10.2-0.6-12.6-3.4c-8.1-9.4,6.4-44.5,14.7-55.3c5.9-7.8,16.9-7.8,32.1-7.8h0.9c0,0,0,0,0,0
				c9.5,0,17.7,11.4,18.6,12.7c1,1.4,0.6,3.3-0.8,4.3c-1.4,1-3.3,0.6-4.3-0.8c-2-2.8-8.3-10.1-13.6-10.1c0,0,0,0,0,0l-0.9,0
				c-13.5,0-23.2,0.1-27.2,5.4C15.1,58.8,5.7,88.9,9.7,93.8c1.1,0.8,6.7,1.8,14.2,0.8c8.1-1.1,14.5-3.9,17.7-7.8
				c4.2-5,8.2-15.4,5.7-28c-0.3-1.7,0.8-3.3,2.4-3.6c1.7-0.3,3.3,0.8,3.6,2.4c2.9,14.7-1.7,26.8-7,33.2C40,98.4,27.1,101.2,18,101.2
				C17.9,101.2,17.7,101.2,17.6,101.2z"/>
		</g>
	</g>
</g>
</svg>
