<?xml version="1.0" encoding="utf-8"?>
<!-- Generator: Adobe Illustrator 23.0.1, SVG Export Plug-In . SVG Version: 6.00 Build 0)  -->
<svg version="1.1" id="Layer_1" xmlns="http://www.w3.org/2000/svg" xmlns:xlink="http://www.w3.org/1999/xlink" x="0px" y="0px"
	 viewBox="0 0 200 200" style="enable-background:new 0 0 200 200;" xml:space="preserve">
<style type="text/css">
	.st0{fill:#FFFFFF;}
	.st1{clip-path:url(#SVGID_2_);}
</style>
<g>
	<path class="st0" d="M194.2,104.2c-0.7-25.5-35.3-18.6-37.7-8.7c-1.6,6.7-10.6,11.5-10.6,11.5l14.7,18.4
		C160.5,125.4,195.1,137.4,194.2,104.2z"/>
	<path d="M173.6,130.4L173.6,130.4c-7.4,0-13.8-2.2-14-2.3c-0.5-0.2-1-0.5-1.3-0.9l-14.7-18.4c-0.5-0.7-0.7-1.5-0.6-2.4
		c0.2-0.8,0.7-1.6,1.5-2c2.2-1.2,8.1-5.2,9.2-9.6c1.7-6.9,12.5-11.2,21.6-11.2c10.3,0,21.4,5.4,21.8,20.5c0.2,8.8-1.9,15.5-6.2,20
		C186.8,128.3,181,130.4,173.6,130.4z M162.2,122.9c1.8,0.5,6.4,1.7,11.4,1.7c5.7,0,10.1-1.5,13-4.5c3.2-3.3,4.8-8.7,4.6-15.8
		c-0.3-12.9-10.2-14.9-16-14.9c-8,0-15.3,3.7-16,6.8c-1.3,5.2-6,9.3-9.1,11.5L162.2,122.9z"/>
</g>
<path d="M170.7,122.1c-4.7,0-8.7-1.2-9-1.3c-0.5-0.2-1-0.5-1.3-0.9l-9.1-10.2c-0.6-0.7-0.9-1.7-0.7-2.6c0.2-0.9,0.8-1.7,1.6-2.1
	c1.7-0.8,4.5-2.8,5-4.5c1.4-5,10.1-7.8,17.1-7c7.4,0.9,12,5.6,12.2,12.5l0,0c0.2,5.8-1.6,10.2-5.2,12.9
	C178.1,121.4,174.2,122.1,170.7,122.1z M164.2,115.3c3.1,0.8,9.8,1.7,13.4-1c2-1.5,3-4.2,2.8-8c0-1.3-0.2-5.4-5.8-6.6
	c-5.4-1.1-11.2,1.2-11.8,2.5c-0.7,2.7-2.9,4.8-4.8,6.2L164.2,115.3z"/>
<g>
	<path class="st0" d="M5,104.2c0.7-25.5,35.3-18.6,37.7-8.7c1.6,6.7,10.6,11.5,10.6,11.5l-14.7,18.4C38.6,125.4,4.1,137.4,5,104.2z"
		/>
	<path d="M25.5,130.4c-7.4,0-13.1-2.1-17.2-6.3c-4.4-4.5-6.5-11.2-6.2-20C2.5,89,13.6,83.7,23.9,83.7c9.1,0,19.9,4.3,21.6,11.2
		c1.1,4.5,7,8.5,9.2,9.6c0.8,0.4,1.3,1.1,1.5,2c0.2,0.8,0,1.7-0.6,2.4l-14.7,18.4c-0.3,0.4-0.8,0.7-1.3,0.9
		C39.3,128.2,32.9,130.4,25.5,130.4z M23.9,89.4c-5.8,0-15.7,1.9-16,14.9c-0.2,7.2,1.4,12.5,4.6,15.8c2.9,3,7.3,4.5,13,4.5
		c5,0,9.6-1.2,11.4-1.7l12.2-15.2c-3.1-2.2-7.9-6.3-9.1-11.5C39.2,93.1,31.9,89.4,23.9,89.4z"/>
</g>
<path d="M28.5,122.1c-3.5,0-7.5-0.7-10.6-3c-3.6-2.8-5.4-7.1-5.2-12.9l0,0c0.2-7,4.8-11.6,12.2-12.5c6.9-0.8,15.7,2,17.1,7
	c0.5,1.8,3.6,3.8,5,4.5c0.8,0.4,1.5,1.2,1.6,2.1c0.2,0.9-0.1,1.9-0.7,2.6l-9.1,10.2c-0.4,0.4-0.8,0.7-1.3,0.9
	C37.2,120.9,33.2,122.1,28.5,122.1z M27.4,99.4c-1,0-2,0.1-2.9,0.3c-5.7,1.2-5.8,5.3-5.8,6.6l0,0c-0.1,3.8,0.8,6.5,2.8,8
	c3.6,2.8,10.3,1.8,13.4,1l6.2-6.9c-1.9-1.4-4.1-3.6-4.8-6.3C35.8,101.2,31.8,99.4,27.4,99.4z M15.7,106.2L15.7,106.2L15.7,106.2z"/>
<g>
	<defs>
		<path id="SVGID_1_" d="M161.3,77.3c-8.5-23.2-37.5-32.2-61.7-32.2c-24.2,0-53.3,9-61.7,32.2c-22.4,61.5,18.8,77.5,61.7,77.5
			C142.5,154.8,183.8,138.9,161.3,77.3z"/>
	</defs>
	<use xlink:href="#SVGID_1_"  style="overflow:visible;fill:#FFFFFF;"/>
	<clipPath id="SVGID_2_">
		<use xlink:href="#SVGID_1_"  style="overflow:visible;"/>
	</clipPath>
	<path class="st1" d="M164.6,128.4c-1.6,0-2.9-1.3-3-2.9c-0.2-7.9-8.7-9.6-9-9.6c-0.8-0.2-1.5-0.7-2-1.4c-0.4-0.7-0.6-1.6-0.3-2.4
		c0-0.2,5-17.3-1.8-29.5c-3-5.4-8-9.2-14.8-11.1c-20.3-5.7-30.9,19.1-31.3,20.2c-0.6,1.5-2.4,2.2-3.9,1.6c-1.5-0.6-2.2-2.4-1.6-3.9
		c0.1-0.3,3.2-7.7,9.3-14.3c8.4-9.1,18.5-12.3,29.1-9.4c8.4,2.4,14.6,7.1,18.4,14c6.2,11.3,4.3,25.2,3,31.2
		c4.7,1.8,10.7,6.2,10.9,14.4C167.6,127,166.3,128.4,164.6,128.4C164.6,128.4,164.6,128.4,164.6,128.4z"/>
	<path class="st1" d="M34.6,128.4C34.5,128.4,34.5,128.4,34.6,128.4c-1.7,0-3-1.4-3-3.1c0.2-8.2,6.1-12.6,10.9-14.4
		c-1.3-6-3.2-19.9,3-31.2c3.8-6.9,10-11.6,18.4-14c10.6-3,20.7,0.3,29.1,9.4c6.1,6.6,9.2,14,9.3,14.3c0.6,1.5-0.1,3.3-1.6,3.9
		c-1.5,0.6-3.3-0.1-3.9-1.6c-0.4-1.1-11-25.9-31.3-20.2c-6.8,1.9-11.8,5.6-14.8,11.1c-6.8,12.2-1.9,29.4-1.8,29.5
		c0.2,0.8,0.1,1.7-0.3,2.4c-0.4,0.7-1.2,1.2-2,1.4c-0.3,0.1-8.8,1.9-9,9.6C37.5,127.1,36.2,128.4,34.6,128.4z"/>
</g>
<path d="M99.6,157.7c-21.5,0-49.9-4-63.4-23.3c-9.7-13.9-10.1-33.5-1.1-58.1c9.2-25.1,40.4-34.1,64.5-34.1c24,0,55.3,8.9,64.5,34.1
	c9,24.7,8.6,44.2-1.1,58.1C149.5,153.7,121.1,157.7,99.6,157.7z M99.6,48c-22.1,0-50.9,7.9-59,30.3c-8.3,22.8-8.2,40.6,0.4,52.9
	C53,148.3,79.5,152,99.6,152c20.1,0,46.6-3.6,58.6-20.8c8.6-12.3,8.7-30,0.4-52.9C150.5,55.9,121.7,48,99.6,48z"/>
<g>
	<path d="M97.4,115.1"/>
	<path d="M142.7,110.2c0-4.1-3.3-7.4-7.4-7.4c-4.1,0-7.4,3.3-7.4,7.4s3.3,7.4,7.4,7.4C139.4,117.6,142.7,114.3,142.7,110.2z"/>
	<ellipse transform="matrix(0.2298 -0.9732 0.9732 0.2298 -57.5738 147.6911)" cx="64.5" cy="110.2" rx="7.4" ry="7.4"/>
</g>
<g>
	<path d="M103.7,110.3c-0.9-1-2.5-1.5-4-1.5l0,0c-1.5,0-3.1,0.5-4,1.5c-1.7,1.9-1.8,5.2,3.8,6.6h0.3
		C105.4,115.5,105.4,112.2,103.7,110.3z"/>
</g>
<path d="M110.7,119.3c-1.5-0.6-3.2,0.1-3.8,1.5c0,0,0,0,0,0l0,0c0,0-1.2,1.8-7.2,1.8c-5.9,0-7.2-1.8-7.2-1.8l0,0c0,0,0,0,0,0
	c-0.6-1.5-2.3-2.2-3.8-1.5c-1.5,0.6-2.2,2.3-1.5,3.8c0,0,0,0.1,0.1,0.1c0.5,1.1,3.1,5.2,12.4,5.2c9.4,0,11.9-4.1,12.4-5.2
	c0,0,0-0.1,0.1-0.1C112.9,121.6,112.2,119.9,110.7,119.3z"/>
</svg>
