<?xml version="1.0" encoding="utf-8"?>
<!-- Generator: Adobe Illustrator 23.0.1, SVG Export Plug-In . SVG Version: 6.00 Build 0)  -->
<svg version="1.1" id="Layer_1" xmlns="http://www.w3.org/2000/svg" xmlns:xlink="http://www.w3.org/1999/xlink" x="0px" y="0px"
	 viewBox="0 0 200 200" style="enable-background:new 0 0 200 200;" xml:space="preserve">
<style type="text/css">
	.st0{fill:#FFFFFF;}
</style>
<g>
	<g>
		<g>
			<g>
				<path class="st0" d="M35.4,29.9C49.4,20.9,95,70.3,95,70.3l-61.4,36.5C33.6,106.8,10.7,45.6,35.4,29.9z"/>
				<path d="M33.6,110.2c-0.4,0-0.7-0.1-1.1-0.2c-0.9-0.3-1.7-1.1-2-2c-1-2.6-23.6-64,3.1-81c1.7-1.1,3.7-1.6,5.9-1.6
					c18.2,0,54,38.2,58,42.6c0.7,0.7,1,1.8,0.8,2.8c-0.1,1-0.7,1.9-1.6,2.4l-61.4,36.5C34.8,110,34.2,110.2,33.6,110.2z M39.5,32.1
					c-1,0-1.7,0.2-2.3,0.6c-17.1,10.9-8,50.6-1.7,69.2l54.3-32.3C77.5,56.8,51.4,32.1,39.5,32.1z"/>
			</g>
			<path d="M39.2,105.7l-1.4-4c-0.2-0.5-4-11.2-5.8-23.5c-2.6-17.5,0.2-29.1,8.3-34.5h0C45.8,40,54.6,43.8,68,55.8
				c8.9,7.9,16.4,16.5,16.7,16.8l2.7,3.1L39.2,105.7z M44.1,49.4c-10.5,7-5.3,32.5-1.2,45.8l33.9-21.1c-3-3.2-8-8.4-13.4-13.2
				C47.9,47.1,44.1,49.4,44.1,49.4L44.1,49.4z"/>
			<g>
				<path class="st0" d="M164.7,29.9c-14.1-9-59.7,40.4-59.7,40.4l61.4,36.5C166.4,106.8,189.4,45.6,164.7,29.9z"/>
				<path d="M166.4,110.2c-0.6,0-1.2-0.2-1.7-0.5l-61.4-36.5c-0.9-0.5-1.4-1.4-1.6-2.4c-0.1-1,0.2-2,0.9-2.8
					c4-4.4,39.8-42.6,58-42.6c2.3,0,4.2,0.5,5.9,1.6c26.7,17,4,78.4,3.1,81c-0.3,0.9-1.1,1.6-2,2
					C167.1,110.1,166.8,110.2,166.4,110.2z M110.3,69.5l54.3,32.3c6.3-18.6,15.4-58.3-1.7-69.2c-0.6-0.4-1.4-0.6-2.3-0.6
					C148.6,32.1,122.5,56.8,110.3,69.5z"/>
			</g>
			<path d="M160.8,105.7l-48.2-30l2.7-3.1c0.3-0.4,7.9-8.9,16.7-16.8c13.4-12,22.2-15.8,27.7-12.1l0,0c8.1,5.4,10.9,17,8.3,34.5
				c-1.8,12.3-5.6,23.1-5.8,23.5L160.8,105.7z M123.2,74.1l33.9,21.1c4.1-13.3,9.3-38.8-1.2-45.8c-0.1,0-3.9-2.2-19.3,11.5
				C131.2,65.7,126.2,70.9,123.2,74.1z"/>
		</g>
	</g>
	<path d="M192.5,146.1c-0.3,0-0.5,0-0.8-0.1l-63.1-16l64.8-9.4c1.8-0.3,3.5,1,3.8,2.8c0.3,1.8-1,3.5-2.8,3.8l-31.5,4.6l30.5,7.7
		c1.8,0.5,2.9,2.3,2.4,4.1C195.4,145,194,146.1,192.5,146.1z"/>
	<path d="M6.8,146.1c-1.5,0-2.9-1-3.2-2.5c-0.5-1.8,0.6-3.6,2.4-4.1l30.5-7.7l-31.5-4.6c-1.8-0.3-3.1-2-2.8-3.8
		c0.3-1.8,2-3.1,3.8-2.8l64.8,9.4L7.7,146C7.4,146,7.1,146.1,6.8,146.1z"/>
	<g>
		<path class="st0" d="M171.3,87.8c-9.8-26.9-43.6-37.3-71.6-37.3c-28.1,0-61.8,10.4-71.6,37.3c-26,71.4,21.8,90,71.6,90
			C149.5,177.7,197.4,159.2,171.3,87.8z"/>
		<path d="M99.7,181.1c-24.9,0-57.9-4.7-73.5-27c-11.3-16.1-11.7-38.8-1.3-67.5c10.6-29.2,46.9-39.5,74.8-39.5
			c27.9,0,64.1,10.4,74.8,39.5c10.4,28.6,10,51.3-1.3,67.5C157.6,176.4,124.6,181.1,99.7,181.1z M99.7,53.8
			C74,53.8,40.6,63,31.2,88.9c-9.6,26.5-9.5,47.1,0.5,61.3c14,20,44.7,24.1,68,24.1c23.3,0,54.1-4.2,68-24.1
			c10-14.2,10.1-34.9,0.5-61.3C158.7,63,125.4,53.8,99.7,53.8z"/>
	</g>
	<g>
		<path d="M109,134.5c-4.3,2.8-5.1-0.5-5.1-4.2c0-3.2,0.3-7-3.9-7c-4.2,0-3.9,3.8-3.9,7c0,3.7-0.8,7-5.1,4.2c-4.3-2.8-8.5,3.1-3,6.5
			c4.8,3,10.6,0.8,12.1-0.7c1.5,1.5,7.3,3.7,12.1,0.7C117.5,137.6,113.3,131.7,109,134.5z"/>
		<path d="M97.2,131.6"/>
		<path d="M149.8,126c0-4.7-3.8-8.6-8.6-8.6c-4.7,0-8.6,3.8-8.6,8.6c0,4.7,3.8,8.6,8.6,8.6C145.9,134.6,149.8,130.7,149.8,126z"/>
		<path d="M50.4,126c0-4.7,3.8-8.6,8.6-8.6c4.7,0,8.6,3.8,8.6,8.6c0,4.7-3.8,8.6-8.6,8.6C54.3,134.6,50.4,130.7,50.4,126z"/>
	</g>
</g>
</svg>
