<?xml version="1.0" encoding="utf-8"?>
<!-- Generator: Adobe Illustrator 23.0.1, SVG Export Plug-In . SVG Version: 6.00 Build 0)  -->
<svg version="1.1" id="Layer_1" xmlns="http://www.w3.org/2000/svg" xmlns:xlink="http://www.w3.org/1999/xlink" x="0px" y="0px"
	 viewBox="0 0 200 200" style="enable-background:new 0 0 200 200;" xml:space="preserve">
<style type="text/css">
	.st0{fill:#FFFFFF;}
	.st1{fill:none;}
</style>
<g>
	<path class="st0" d="M100.5,44.8L100.5,44.8L100.5,44.8c15.1,0,27.9,3.4,38,10.1C139.4,49,143.6,24,147,24c3.8,0,28.8,19.9,9,51.1
		l0,0C163.7,90.3,54.8,44.8,100.5,44.8z"/>
	<path d="M152.9,81.2c-8.1,0-25-6-38.2-11.9c-7.7-3.4-14.3-6.9-19.1-10.1c-6.5-4.3-9.4-7.6-9.4-10.9c0-6.7,10.4-6.7,14.3-6.7
		c13.9,0,25.8,2.8,35.7,8.2c0.6-3.7,1.6-8.7,2.6-13.3c2.7-11.9,4.7-15.7,8.2-15.7c3.6,0,10.7,5.6,15.2,13.8
		c4.8,8.7,8.1,22.8-2.8,40.8c0.3,1.5-0.1,2.6-0.6,3.3C157.2,81.2,154,81.2,152.9,81.2z M92.6,48.8c1.4,2.3,9,8,25.6,15.4
		c14.3,6.4,28.9,11,34.7,11c0,0,0,0,0,0c0-0.6,0.1-1.2,0.5-1.7c7.2-11.3,8.9-22.4,5-32.3c-2.8-7.2-8.1-12-10.6-13.6
		c-1.5,3.3-3.9,13.1-6.3,27.8c-0.2,1-0.8,1.9-1.8,2.3c-1,0.4-2.1,0.3-2.9-0.3c-9.5-6.4-21.7-9.6-36.2-9.6
		C95.5,47.8,93.4,48.4,92.6,48.8z"/>
</g>
<g>
	<path class="st0" d="M36.9,125.7c-10-4-15.7-74.7,29.4-76.8L36.9,125.7z"/>
	<path d="M36.9,128.8c-0.4,0-0.8-0.1-1.2-0.2c-7.9-3.2-10.7-25.8-7.7-43.1c4.1-24.2,18-38.7,38.1-39.6c1-0.1,2,0.4,2.6,1.3
		c0.6,0.8,0.8,1.9,0.4,2.9l-29.4,76.8c-0.3,0.8-0.9,1.4-1.6,1.7C37.8,128.7,37.3,128.8,36.9,128.8z M61.6,52.5
		c-17.3,3.1-24.2,18.3-26.9,31c-1.8,8.4-2.1,18.1-1,26.6c0.6,4.3,1.5,7.3,2.3,9.4L61.6,52.5z"/>
</g>
<g>
	<path class="st0" d="M162.9,138.6c8-63-16.7-93.9-62.4-93.9l0,0l0,0c-15.1,0-27.9,3.4-38,10.1C61.6,49,57.4,24,54.1,24
		c-3.8,0-28.8,19.9-9,51.1l0,0c-7.7,15.3-10.4,36.5-6.9,63.6c0,0-26.1,55.1,62.4,55.1C189,193.7,162.9,138.6,162.9,138.6z"/>
	<path d="M100.5,196.8c-33,0-54.5-7.6-63.9-22.5c-9.5-15-3.3-32.1-1.6-36.1c-3.2-25.9-1-47,6.6-63c-10.7-17.9-7.4-31.9-2.7-40.6
		c4.5-8.1,11.6-13.8,15.2-13.8c3.5,0,5.5,3.8,8.2,15.7c1.1,4.7,2,9.6,2.6,13.3c9.8-5.5,21.8-8.2,35.7-8.2c21.7,0,38.5,6.6,50,19.7
		c14.6,16.5,19.8,42.3,15.5,76.8c1.7,4,7.9,21.1-1.6,36.1C155,189.2,133.5,196.8,100.5,196.8z M53.2,27.5
		c-2.6,1.6-7.8,6.3-10.6,13.6c-3.9,9.8-2.1,21,5,32.3c0.6,0.9,0.6,2.1,0.1,3c-7.7,15.2-9.9,36-6.6,61.8c0.1,0.6,0,1.2-0.3,1.7
		c-0.1,0.2-7.9,17.2,0.9,31.1c8.2,13,28,19.6,58.7,19.6c30.7,0,50.5-6.6,58.7-19.6c8.8-14,1-30.9,0.9-31.1c-0.3-0.5-0.3-1.1-0.3-1.7
		c4.2-33-0.5-57.5-13.9-72.8c-10.3-11.7-25.6-17.6-45.4-17.6c-14.5,0-26.7,3.2-36.2,9.6c-0.9,0.6-2,0.7-2.9,0.3
		c-1-0.4-1.6-1.3-1.8-2.3C57.2,40.7,54.7,30.9,53.2,27.5z"/>
</g>
<g>
	<path d="M97.8,141.9"/>
	<path d="M146.2,136.7c0-4.4-3.5-7.9-7.9-7.9c-4.4,0-7.9,3.5-7.9,7.9c0,4.4,3.5,7.9,7.9,7.9C142.6,144.6,146.2,141.1,146.2,136.7z"
		/>
	<path d="M54.8,136.7c0-4.4,3.5-7.9,7.9-7.9c4.4,0,7.9,3.5,7.9,7.9c0,4.4-3.5,7.9-7.9,7.9C58.4,144.6,54.8,141.1,54.8,136.7z"/>
</g>
<g>
	<g>
		<line class="st1" x1="116.7" y1="169.3" x2="115.6" y2="168.8"/>
		<path d="M116.7,171.6c-0.3,0-0.7-0.1-1-0.2l-1.1-0.5c-1.2-0.5-1.7-1.9-1.1-3.1c0.5-1.2,1.9-1.7,3.1-1.1l1.1,0.5
			c1.2,0.5,1.7,1.9,1.1,3.1C118.4,171.1,117.6,171.6,116.7,171.6z"/>
	</g>
	<g>
		<line class="st1" x1="84.3" y1="169.3" x2="85.4" y2="168.8"/>
		<path d="M84.3,171.6c-0.9,0-1.7-0.5-2.1-1.3c-0.5-1.2,0-2.5,1.1-3.1l1.1-0.5c1.2-0.5,2.5,0,3.1,1.1c0.5,1.2,0,2.5-1.1,3.1
			l-1.1,0.5C84.9,171.6,84.6,171.6,84.3,171.6z"/>
	</g>
</g>
<path d="M44.5,78.9c-0.5,0-1.1-0.1-1.6-0.4c-1.5-0.9-2.1-2.8-1.2-4.3c2.2-3.9,6.2-9.6,7.9-12c-1.6-6.7-5.5-20.9-8.6-25.4
	c-1-1.4-0.7-3.4,0.8-4.4c1.4-1,3.4-0.7,4.4,0.8c4.7,6.7,9.4,26.7,9.9,29c0.2,0.9,0,1.8-0.5,2.6c-0.1,0.1-5.7,7.9-8.4,12.6
	C46.7,78.4,45.7,78.9,44.5,78.9z"/>
<path d="M149.9,76.3l-5.3-13.1l0.2-1c0.5-2.3,5.2-22.3,9.9-29l5.2,3.7c-3.2,4.6-7.2,19.3-8.7,25.8l4.6,11.3L149.9,76.3z"/>
<path d="M100.5,196.8c-33,0-54.5-7.6-63.9-22.5c-9.5-15-3.3-32.1-1.6-36.1c-3.2-25.9-1-47,6.6-63c-10.7-17.9-7.4-31.9-2.7-40.6
	c4.5-8.1,11.6-13.8,15.2-13.8c3.5,0,5.5,3.8,8.2,15.7c1.6,7.1,2.9,14.8,3.4,17.9c0.3,1.7-0.9,3.3-2.6,3.5c-1.7,0.3-3.3-0.9-3.5-2.6
	c-2.3-14.7-4.8-24.5-6.3-27.8c-2.6,1.6-7.8,6.3-10.6,13.6c-3.9,9.8-2.1,21,5,32.3c0.6,0.9,0.6,2.1,0.1,3c-7.7,15.2-9.9,36-6.6,61.8
	c0.1,0.6,0,1.2-0.3,1.7c-0.1,0.2-7.9,17.2,0.9,31.1c8.2,13,28,19.6,58.7,19.6c30.7,0,50.5-6.6,58.7-19.6c8.8-14,1-30.9,0.9-31.1
	c-0.7-1.5-0.1-3.4,1.5-4.1c1.5-0.7,3.4-0.1,4.1,1.5c0.4,0.8,9.4,20.2-1.2,37C155,189.2,133.5,196.8,100.5,196.8z"/>
<path class="st0" d="M157.4,78.1c12.4,32.8,16.3,44.9,16.3,44.9s-26.9-1.1-55.9-14.1c-39-17.6-55.3-54-55.3-54
	C71.6,31.7,135.2,19.1,157.4,78.1z"/>
<path d="M169.3,123.2c-1,0-2-0.5-2.6-1.4c-0.2-0.3-18.9-27.5-50.3-48.7C86.8,53.2,63.5,57.9,63.2,58c-1.7,0.4-3.4-0.7-3.8-2.4
	c-0.4-1.7,0.7-3.4,2.4-3.8c1.1-0.2,26.3-5.4,58,16.1c32.5,21.9,51.2,49.2,52,50.4c1,1.5,0.6,3.4-0.8,4.4
	C170.5,123,169.9,123.2,169.3,123.2z"/>
<path d="M173.7,126.1c0,0-0.1,0-0.1,0c-1.1,0-27.8-1.2-57.1-14.4c-39.6-17.9-56.1-54-56.8-55.6c-0.3-0.7-0.4-1.6-0.1-2.4
	c4.8-12.3,22.2-21.3,41.4-21.3c12,0,23.5,3.5,33.2,10c11.5,7.7,20.2,19.3,26,34.5c11.2,29.8,15.6,42.7,16.2,44.7
	c0.2,0.4,0.3,0.8,0.3,1.3C176.8,124.7,175.4,126.1,173.7,126.1C173.7,126.1,173.7,126.1,173.7,126.1z M65.9,54.8
	c3.2,6.3,19.6,36.2,53.1,51.3c21.2,9.6,41.5,12.6,50.2,13.5c-2.1-6-6.6-18.7-14.8-40.4c-13.8-36.6-42-40.6-53.4-40.6
	C85.3,38.6,70.5,45.5,65.9,54.8z"/>
<g>
	<path class="st0" d="M105.4,9.8c-0.4-2.4-1.9-4.4-4-4.8c-0.3-0.1-0.6-0.1-0.9-0.1c-0.3,0-0.6,0-0.9,0.1c-2.1,0.5-3.7,2.4-4,4.8
		l-9,59.4c0,0,2.9,4.5,14,4.5c11.1,0,14-4.5,14-4.5L105.4,9.8z"/>
	<path d="M100.5,76.8c-12.4,0-16.2-5.3-16.5-5.9c-0.4-0.6-0.6-1.4-0.5-2.1l9-59.4c0.6-3.8,3.1-6.7,6.4-7.4c1-0.2,2.1-0.2,3.1,0
		c3.3,0.7,5.8,3.6,6.4,7.4l9,59.4c0.1,0.7,0,1.5-0.5,2.1C116.7,71.5,112.9,76.8,100.5,76.8z M89.8,68.1c1.3,0.9,4.4,2.5,10.7,2.5
		c6.3,0,9.4-1.6,10.7-2.5l-8.8-57.9c-0.2-1.2-0.9-2.1-1.6-2.3c-0.1,0-0.3,0-0.5,0c-0.8,0.2-1.5,1.1-1.6,2.3L89.8,68.1z"/>
</g>
<path d="M162.1,34.6c-4.5-8.1-11.6-13.8-15.2-13.8c-1.7,0-3.1,1.4-3.1,3.1c0,1.6,1.3,2.9,2.8,3.1c1.8,0.6,8.3,5.6,11.7,14.1
	c3.9,9.8,2.1,21-5,32.3c-0.1,0.2-0.2,0.3-0.2,0.5c1.2,1.4,2.6,2.7,4.1,3.8c0,0,0.1,0.1,0.1,0.1c0.5-0.2,0.9-0.6,1.2-1.1
	C170.4,58,167,43.5,162.1,34.6z"/>
</svg>
