<?xml version="1.0" encoding="utf-8"?>
<!-- Generator: Adobe Illustrator 23.0.1, SVG Export Plug-In . SVG Version: 6.00 Build 0)  -->
<svg version="1.1" id="Layer_1" xmlns="http://www.w3.org/2000/svg" xmlns:xlink="http://www.w3.org/1999/xlink" x="0px" y="0px"
	 viewBox="0 0 200 200" style="enable-background:new 0 0 200 200;" xml:space="preserve">
<style type="text/css">
	.st0{fill:#FFFFFF;}
</style>
<g>
	<g>
		<path class="st0" d="M100.1,22.3c-19.2,0-23.1,17-23.1,17s-8.2-18.5-25.9-7.8c-15.2,9.1-4.4,28.6-4.4,28.6L33.5,82.5
			c0,0-22.1-10.3-27.3,8.3c-4.1,14.9,12.1,20.4,12.1,20.4S1.1,120.5,9,135.3c6.5,12.1,21.7,7,21.7,7s-9.2,12.3,4.3,22.1
			c16,11.6,26.6-3.3,26.6-3.3s2.2,15.3,17.9,16.4c15.7,1.1,20.5-7.5,20.5-7.5s4.9,8.6,20.5,7.5c15.7-1.1,17.9-16.4,17.9-16.4
			s10.7,14.8,26.6,3.3c13.5-9.8,4.3-22.1,4.3-22.1s15.2,5,21.7-7c8-14.8-9.3-24.2-9.3-24.2s16.3-5.5,12.1-20.4
			c-5.2-18.6-27.3-8.3-27.3-8.3l-13.2-22.4c0,0,10.8-19.5-4.4-28.6c-17.7-10.7-25.9,7.8-25.9,7.8S119.3,22.3,100.1,22.3z"/>
		<path d="M118,180.6c-9.5,0-15-3.4-17.9-6.1c-2.9,2.6-8.4,6.1-17.9,6.1c-0.9,0-1.9,0-2.9-0.1c-10.8-0.7-16.6-7.7-19.1-13.7
			c-2.9,2.4-7.4,5-13.2,5c-4.6,0-9.2-1.7-13.8-5c-4.8-3.5-7.6-7.7-8.4-12.5c-0.5-3,0-5.8,0.7-8c-0.7,0-1.4,0.1-2.1,0.1
			c-7.8,0-13.7-3.3-17.1-9.6c-5.9-11-0.1-20.1,6-25.1c-6-3.7-12.1-10.8-9.1-21.6c2.4-8.6,8.6-13.3,17.5-13.3c4.5,0,8.8,1.2,11.4,2.1
			L43.4,60c-3.9-8.1-6.8-23.2,6.2-31.1c4.1-2.5,8.2-3.7,12-3.7c7,0,11.9,4.1,14.8,7.7c3.5-6.4,10.8-13.5,23.7-13.5
			c12.8,0,20.2,7.2,23.7,13.5c2.9-3.6,7.7-7.7,14.8-7.7c3.8,0,7.9,1.3,12,3.7c13.1,7.9,10.1,22.9,6.2,31.1l11.1,18.8
			c2.6-0.9,6.9-2.1,11.4-2.1c8.9,0,15.1,4.7,17.5,13.3c3,10.8-3.1,17.9-9.1,21.6c6.1,5.1,12,14.1,6,25.1c-3.4,6.3-9.3,9.6-17.1,9.6
			c-0.7,0-1.4,0-2.1-0.1c0.7,2.2,1.2,5,0.7,8c-0.7,4.8-3.5,9-8.4,12.5c-4.6,3.3-9.2,5-13.8,5c-5.8,0-10.3-2.6-13.2-5
			c-2.5,6-8.3,13-19.1,13.7C119.9,180.6,118.9,180.6,118,180.6z M100.1,167.1c1.1,0,2,0.6,2.6,1.5c0.1,0.2,3.8,6.1,15.3,6.1
			c0.8,0,1.6,0,2.5-0.1c13.1-0.9,15.1-13.4,15.2-13.9c0.2-1.2,1.1-2.1,2.2-2.4c1.2-0.3,2.4,0.2,3.1,1.1c0,0.1,4.8,6.5,12.2,6.5
			c3.3,0,6.8-1.3,10.3-3.8c3.5-2.5,5.5-5.4,6-8.6c0.8-5-2.3-9.3-2.4-9.3c-0.7-1-0.8-2.4,0-3.5c0.8-1,2.1-1.5,3.3-1.1
			c0,0,2.8,0.9,6.3,0.9c5.6,0,9.6-2.2,12-6.5c6.5-12-7.5-19.9-8.1-20.2c-1-0.6-1.6-1.7-1.5-2.8c0.1-1.2,0.9-2.2,2-2.5
			c0.5-0.2,13.6-4.8,10.2-16.8c-1.7-6-5.6-9-11.8-9c-5.8,0-11.4,2.5-11.4,2.6c-1.4,0.6-3,0.1-3.8-1.2c0,0-12.9-21.9-13.2-22.4
			c0,0,0,0,0,0c-0.5-0.9-0.5-2,0-2.9c0.4-0.7,9.2-17.1-3.3-24.7c-3.2-1.9-6.2-2.9-9-2.9c-8.5,0-12.7,9.3-12.7,9.4
			c-0.5,1.2-1.7,1.9-3,1.7c-1.3-0.1-2.3-1-2.6-2.3c-0.1-0.6-3.6-14.7-20.2-14.7c-16.6,0-20.1,14.1-20.2,14.7
			c-0.3,1.2-1.3,2.1-2.6,2.3c-1.3,0.1-2.4-0.6-3-1.7c0-0.1-4.3-9.4-12.7-9.4c-2.8,0-5.8,1-9,2.9c-12.6,7.6-3.7,24-3.3,24.7
			c0.5,0.9,0.5,2,0,2.9c0,0,0,0,0,0C49,62.1,36.1,84,36.1,84c-0.8,1.3-2.4,1.8-3.8,1.2c0,0-5.6-2.6-11.4-2.6c-6.3,0-10.1,2.9-11.8,9
			c-3.3,12,9.7,16.6,10.2,16.8c1.1,0.4,1.9,1.4,2,2.5c0.1,1.2-0.5,2.3-1.5,2.8c-0.6,0.3-14.6,8.2-8.1,20.2c2.3,4.3,6.4,6.5,12,6.5
			c3.5,0,6.2-0.9,6.3-0.9c1.2-0.4,2.6,0,3.3,1.1c0.7,1,0.7,2.4,0,3.5c0,0-3.1,4.4-2.4,9.3c0.5,3.2,2.5,6.1,6,8.6
			c3.5,2.6,7,3.8,10.3,3.8c7.5,0,12.1-6.4,12.2-6.5c0.7-1,1.9-1.4,3.1-1.1c1.2,0.3,2,1.2,2.2,2.4c0.1,0.5,2.2,13,15.2,13.9
			c0.8,0.1,1.7,0.1,2.5,0.1c11.5,0,15.3-6.1,15.3-6.1C98.1,167.7,99.1,167.1,100.1,167.1z"/>
	</g>
	<g>
		<g>
			<path class="st0" d="M182.9,56c-13-19.8-29.6-5.8-37.6,16.7l7,10.4C152.4,83.1,199.9,81.9,182.9,56z"/>
			<path d="M152.4,86c-1,0-1.9-0.5-2.4-1.3l-7-10.4c-0.5-0.8-0.6-1.7-0.3-2.6c6.1-17.3,16.3-28.1,26.5-28.1
				c4.2,0,10.4,1.9,16.3,10.8c4.4,6.8,5.3,12.8,2.6,17.9C181.4,84.9,155.4,86,152.4,86C152.4,86,152.4,86,152.4,86z M148.6,72.3
				l5.2,7.8c8-0.5,25-2.9,29-10.5c1.6-3.1,0.8-7.1-2.4-12c-3.6-5.4-7.4-8.2-11.4-8.2C161.9,49.4,153.8,58.6,148.6,72.3z"/>
		</g>
		<g>
			<path class="st0" d="M17.3,56c13-19.8,29.6-5.8,37.6,16.7l-7,10.4C47.9,83.1,0.3,81.9,17.3,56z"/>
			<path d="M47.9,86C47.9,86,47.8,86,47.9,86c-3-0.1-29.1-1.1-35.7-13.7c-2.7-5.1-1.8-11.2,2.6-17.9c5.9-8.9,12.1-10.8,16.3-10.8
				c10.2,0,20.3,10.8,26.5,28.1c0.3,0.9,0.2,1.8-0.3,2.6l-7,10.4C49.8,85.5,48.9,86,47.9,86z M31.1,49.4c-4,0-7.8,2.8-11.4,8.2
				c-3.2,4.8-4,8.9-2.4,12c4,7.6,20.9,10.1,28.9,10.5l5.2-7.8C46.4,58.6,38.3,49.4,31.1,49.4z"/>
		</g>
	</g>
	<g>
		<path class="st0" d="M163,78.4c-8.6-23.6-38.2-32.8-62.9-32.8c-24.7,0-54.3,9.2-62.9,32.8c-22.8,62.7,19.2,78.9,62.9,78.9
			C143.8,157.3,185.8,141.1,163,78.4z"/>
		<path d="M100.1,160.3c-21.9,0-50.8-4.1-64.5-23.7c-9.9-14.1-10.3-34.1-1.1-59.2c9.3-25.6,41.2-34.7,65.6-34.7
			c24.4,0,56.3,9.1,65.6,34.7c9.2,25.1,8.8,45-1.1,59.2C150.9,156.2,122,160.3,100.1,160.3z M100.1,48.6c-22.5,0-51.8,8.1-60.1,30.8
			c-8.5,23.2-8.3,41.3,0.4,53.8c12.2,17.5,39.2,21.2,59.7,21.2c20.5,0,47.5-3.7,59.7-21.2c8.7-12.5,8.9-30.6,0.4-53.8
			C151.9,56.6,122.7,48.6,100.1,48.6z"/>
	</g>
	<path d="M100.1,142c-4.3,0-10.8-0.3-16.3-2.5c-7.4-3-11.3-8.8-11.3-16.7C72.5,103,86.8,96,100.1,96c13.4,0,27.6,7.1,27.6,26.9
		c0,7.9-3.9,13.7-11.3,16.7C110.9,141.7,104.5,142,100.1,142z M100.1,102.1c-5.1,0-21.6,1.5-21.6,20.8c0,8.9,6.9,13.1,21.6,13.1
		c14.7,0,21.6-4.2,21.6-13.1C121.7,103.6,105.2,102.1,100.1,102.1z"/>
	<g>
		<path d="M143.7,111.9c0-4.2-3.4-7.5-7.5-7.5c-4.2,0-7.5,3.4-7.5,7.5c0,4.2,3.4,7.5,7.5,7.5C140.3,119.4,143.7,116.1,143.7,111.9z"
			/>
		<path d="M56.5,111.9c0-4.2,3.4-7.5,7.5-7.5c4.2,0,7.5,3.4,7.5,7.5c0,4.2-3.4,7.5-7.5,7.5C59.9,119.4,56.5,116.1,56.5,111.9z"/>
	</g>
	<path d="M108.1,119.4c-3.8,2.5-4.5-0.5-4.5-3.7c0-2.8,0.2-6.2-3.4-6.2c-3.7,0-3.4,3.4-3.4,6.2c0,3.2-0.7,6.1-4.5,3.7
		c-3.8-2.4-7.5,2.7-2.7,5.7c4.2,2.6,9.3,0.7,10.6-0.6c1.3,1.3,6.4,3.2,10.6,0.6C115.6,122.1,111.9,116.9,108.1,119.4z"/>
	<path d="M100.1,116.8"/>
</g>
</svg>
