<?xml version="1.0" encoding="utf-8"?>
<!-- Generator: Adobe Illustrator 23.0.1, SVG Export Plug-In . SVG Version: 6.00 Build 0)  -->
<svg version="1.1" id="bunny" xmlns="http://www.w3.org/2000/svg" xmlns:xlink="http://www.w3.org/1999/xlink" x="0px" y="0px"
	 viewBox="0 0 200 200" style="enable-background:new 0 0 200 200;" xml:space="preserve">
<style type="text/css">
	.st0{fill:#FFFFFF;}
</style>
<g>
	<g>
		<path class="st0" d="M125.6,81c-4-34.5,5-63.3,23.2-71.7c1.7-0.8,15.6-7.2,27.1-0.6c9,5.2,11.6,15.5,12.3,18.3
			c5,20.1-13.2,46.6-43.9,68.4C138.1,90.6,131.8,85.8,125.6,81z"/>
		<path d="M144.3,98.7c-0.7,0-1.4-0.2-2-0.7l-18.7-14.4c-0.7-0.5-1.1-1.3-1.3-2.2c-4.3-36.6,5.6-66,25.1-75c4-1.9,18.1-7.4,30.1-0.5
			c6.8,3.9,11.4,10.7,13.8,20.4c5.2,20.8-12.1,48.3-45.2,71.8C145.6,98.5,145,98.7,144.3,98.7z M128.7,79.3l15.7,12.1
			c29.1-21.3,45.1-46,40.7-63.5c-2-7.8-5.6-13.3-10.8-16.3c-9.3-5.4-20.8-0.8-24.1,0.7C133.8,19.9,125.2,46.7,128.7,79.3z"/>
	</g>
	<path d="M135.2,92.4l0.3-8.1c0.2-3.6,0.8-16.3,3.4-28.9c3.7-18.3,9.5-27.9,17.7-29.5c5.6-1,11.9,1.9,14.8,6.9
		c4.3,7.4,0.7,18.3-11,33.2c-8.4,10.7-18.2,19.8-19.3,20.8L135.2,92.4z M158.9,32.4c-0.4,0-0.7,0-1,0.1
		c-7.9,1.4-13.2,21.7-15.1,43.4c13-13.3,27.3-32,22.9-39.7C164.4,34,161.5,32.4,158.9,32.4z"/>
	<g>
		<path class="st0" d="M74,81c4-34.5-5-63.3-23.2-71.7c-1.7-0.8-15.6-7.2-27.1-0.6c-9,5.2-11.6,15.5-12.3,18.3
			c-5,20.1,13.2,46.6,43.9,68.4C61.5,90.6,67.8,85.8,74,81z"/>
		<path d="M55.3,98.7c-0.7,0-1.3-0.2-1.9-0.6C20.3,74.6,3,47.1,8.2,26.2c2.4-9.6,7.1-16.5,13.8-20.4c12-6.9,26.1-1.4,30.1,0.5
			c19.5,9,29.4,38.5,25.1,75c-0.1,0.9-0.6,1.7-1.3,2.2L57.3,98C56.7,98.5,56,98.7,55.3,98.7z M35.4,9c-3.3,0-6.9,0.7-10.1,2.5
			c-5.2,3-8.8,8.5-10.8,16.3c-4.4,17.5,11.5,42.3,40.7,63.5l15.7-12.1c3.5-32.6-5.1-59.4-21.5-67C47.3,11.3,41.7,9,35.4,9z M74,81
			L74,81L74,81z"/>
	</g>
	<path d="M64.4,92.4l-6-5.5c-1.1-1-10.9-10.1-19.3-20.8c-11.7-14.9-15.3-25.8-11-33.2c2.9-5,9.3-7.9,14.8-6.9
		c8.2,1.5,14,11.1,17.7,29.5c2.5,12.6,3.2,25.3,3.4,28.9L64.4,92.4z M40.7,32.4c-2.6,0-5.5,1.6-6.8,3.8c-4.5,7.7,9.8,26.4,22.9,39.7
		c-1.9-21.7-7.2-42-15.1-43.4C41.4,32.5,41,32.4,40.7,32.4z"/>
	<path d="M190,163.5c-0.3,0-0.5,0-0.8-0.1l-61.3-15.5l62.9-9.2c1.8-0.3,3.4,1,3.7,2.7c0.3,1.8-1,3.4-2.7,3.7l-30.6,4.5l29.6,7.5
		c1.7,0.4,2.8,2.2,2.4,3.9C192.8,162.5,191.4,163.5,190,163.5z"/>
	<path d="M9.6,163.5c-1.5,0-2.8-1-3.1-2.4c-0.4-1.7,0.6-3.5,2.4-3.9l29.6-7.5l-30.6-4.5c-1.8-0.3-3-1.9-2.8-3.7
		c0.3-1.8,1.9-3,3.7-2.7l62.9,9.2l-61.3,15.5C10.1,163.4,9.9,163.5,9.6,163.5z"/>
	<g>
		<path class="st0" d="M169.4,106.9c-9.5-26.1-42.3-36.3-69.6-36.3c-27.3,0-60.1,10.1-69.6,36.3c-25.3,69.4,21.2,87.4,69.6,87.4
			C148.2,194.2,194.7,176.2,169.4,106.9z"/>
		<path d="M99.8,197.5c-24.2,0-56.3-4.5-71.4-26.2c-11-15.7-11.4-37.7-1.2-65.5c10.3-28.4,45.6-38.4,72.6-38.4
			c27.1,0,62.3,10.1,72.7,38.4c10.1,27.8,9.7,49.9-1.2,65.5C156,192.9,124,197.5,99.8,197.5z M99.8,73.8c-25,0-57.4,8.9-66.5,34.1
			c-9.4,25.7-9.2,45.8,0.5,59.6C47.3,186.9,77.1,191,99.8,191c22.7,0,52.5-4.1,66.1-23.4c9.7-13.8,9.8-33.9,0.5-59.6
			C157.2,82.8,124.8,73.8,99.8,73.8z"/>
	</g>
	<g>
		<g>
			<path d="M108.8,152.2c-4.2,2.7-5-0.5-5-4.1c0-3.1,0.3-6.8-3.8-6.8c-4.1,0-3.8,3.7-3.8,6.8c0,3.6-0.8,6.8-5,4.1
				c-4.2-2.7-8.3,3-3,6.3c4.7,2.9,10.3,0.7,11.8-0.7c1.4,1.4,7.1,3.6,11.8,0.7C117.1,155.2,113,149.5,108.8,152.2z"/>
			<path d="M97.4,149.4"/>
			<path d="M148.4,144c0-4.6-3.7-8.3-8.3-8.3c-4.6,0-8.3,3.7-8.3,8.3c0,4.6,3.7,8.3,8.3,8.3C144.7,152.3,148.4,148.6,148.4,144z"/>
			<path d="M51.9,144c0-4.6,3.7-8.3,8.3-8.3c4.6,0,8.3,3.7,8.3,8.3c0,4.6-3.7,8.3-8.3,8.3C55.7,152.3,51.9,148.6,51.9,144z"/>
		</g>
	</g>
</g>
</svg>
