<?xml version="1.0" encoding="utf-8"?>
<!-- Generator: Adobe Illustrator 23.0.1, SVG Export Plug-In . SVG Version: 6.00 Build 0)  -->
<svg version="1.1" id="Layer_1" xmlns="http://www.w3.org/2000/svg" xmlns:xlink="http://www.w3.org/1999/xlink" x="0px" y="0px"
	 viewBox="0 0 200 200" style="enable-background:new 0 0 200 200;" xml:space="preserve">
<style type="text/css">
	.st0{fill:#FFFFFF;}
	.st1{fill:none;}
</style>
<g>
	<path class="st0" d="M124.7,60.6C144.9,14.3,155.2,5,160.8,6.2c2.9,0.6,4.7,4,5.2,4.9c6.7,12.3-8.7,30.5-9.7,31.6
		c8-5.5,15.3-6.7,18.2-3.8c1.9,1.9,1.5,5.1,1.4,5.9c-0.5,3.8-3.1,7.2-13.4,13.7c-4.7,3-11.2,6.7-19.3,10.3
		C137.1,66.1,130.9,63.3,124.7,60.6z"/>
	<path d="M143.3,72.1c-0.4,0-0.9-0.1-1.3-0.3l-18.6-8.3c-1.6-0.7-2.3-2.6-1.6-4.2c22.8-52.2,32.9-57.7,39.8-56.2
		c2.9,0.6,5.3,2.8,7.3,6.5c4.5,8.2,1,18-3.1,25.2c4.7-1.1,8.6-0.5,11.1,2c1.3,1.4,2.8,3.9,2.2,8.5c-0.7,5.4-4.6,9.6-14.8,16.1
		c-6.2,3.9-12.8,7.5-19.7,10.5C144.2,72,143.7,72.1,143.3,72.1z M128.8,59l14.4,6.5c6.1-2.8,12-6,17.6-9.5
		c10.5-6.6,11.6-9.4,11.9-11.5c0.3-2.3-0.3-3.1-0.5-3.3c-1.1-1.1-6.6-1.1-14.1,4.1c-1.3,0.9-3.1,0.7-4.2-0.5c-1.1-1.2-1.1-3,0-4.2
		c0.2-0.2,15-17.5,9.3-28c-1.5-2.7-2.7-3.2-3.1-3.3C158.7,9,150.5,10,128.8,59z"/>
</g>
<g>
	<path class="st0" d="M76.9,60.6C56.7,14.3,46.4,5,40.7,6.2c-2.9,0.6-4.7,4-5.2,4.9c-6.7,12.3,8.7,30.5,9.7,31.6
		c-8-5.5-15.3-6.7-18.2-3.8c-1.9,1.9-1.5,5.1-1.4,5.9c0.5,3.8,3.1,7.2,13.4,13.7c4.7,3,11.2,6.7,19.3,10.3
		C64.5,66.1,70.7,63.3,76.9,60.6z"/>
	<path d="M58.3,72.1c-0.4,0-0.9-0.1-1.3-0.3c-6.9-3-13.5-6.6-19.7-10.5c-10.3-6.5-14.1-10.7-14.8-16c-0.6-4.5,0.9-7.1,2.2-8.5
		c2.4-2.5,6.4-3.1,11.1-2c-4.1-7.2-7.5-17-3.1-25.2c2-3.7,4.5-5.9,7.3-6.5c6.9-1.5,17,4,39.8,56.2c0.7,1.6,0,3.5-1.6,4.2l-18.6,8.3
		C59.2,72,58.7,72.1,58.3,72.1z M31.6,40.6c-1.1,0-1.9,0.2-2.3,0.6c-0.4,0.4-0.7,1.4-0.5,3.3c0.3,2.1,1.4,4.8,11.9,11.5
		c5.6,3.5,11.5,6.7,17.6,9.5L72.7,59C51.1,10,42.9,9,41.4,9.3c-0.4,0.1-1.6,0.6-3.1,3.3c-5.8,10.5,9.1,27.9,9.3,28
		c1.1,1.2,1,3,0,4.2c-1.1,1.2-2.9,1.4-4.2,0.5C38.2,41.8,34,40.6,31.6,40.6z"/>
</g>
<path class="st0" d="M137.9,79.9c15.7-15.5,49.4-9.4,49.4-9.4s1.3,25.8-22.8,40.3L137.9,79.9z"/>
<path d="M153.4,100.9l-5.3-3.9c12.2-16.6,33.8-26.6,34.7-27l2.7,5.9c0,0,0,0,0,0l0,0C185.3,76.1,164.5,85.7,153.4,100.9z"/>
<rect x="156" y="93.8" transform="matrix(0.4602 -0.8878 0.8878 0.4602 -5.7896 197.1493)" width="6.5" height="19.1"/>
<path d="M164.4,113.9c-0.9,0-1.8-0.4-2.4-1.1L135.5,82c-1.1-1.3-1-3.1,0.2-4.3c9.6-9.5,25.1-11.5,36.4-11.5c8.8,0,15.5,1.2,15.7,1.2
	c1.4,0.3,2.5,1.5,2.6,2.9c0.1,1.1,1.1,27.9-24.4,43.1C165.5,113.8,164.9,113.9,164.4,113.9z M142.3,80.3l22.7,26.4
	c16-10.8,18.6-27.1,19-33.4c-2.6-0.3-6.9-0.7-11.9-0.7C162.8,72.5,150.5,73.9,142.3,80.3z"/>
<path class="st0" d="M63.7,79.9C48,64.4,14.4,70.5,14.4,70.5S13,96.3,37.2,110.8L63.7,79.9z"/>
<path d="M37.2,113.9c-0.6,0-1.1-0.1-1.6-0.5c-25.5-15.3-24.4-42-24.4-43.1c0.1-1.5,1.2-2.7,2.6-2.9c0.3-0.1,6.9-1.2,15.7-1.2
	c11.3,0,26.8,2,36.4,11.5c1.2,1.2,1.3,3.1,0.2,4.3l-26.5,30.8C39,113.6,38.1,113.9,37.2,113.9z M17.6,73.2c0.4,6.3,2.9,22.5,19,33.4
	l22.7-26.4c-8.2-6.4-20.5-7.8-29.7-7.8C24.5,72.5,20.2,72.9,17.6,73.2z"/>
<path class="st0" d="M100.8,194.8c-91.1,0-64.2-56.7-64.2-56.7c-8.3-64.8,17.2-96.6,64.2-96.6l0,0l0,0l0,0l0,0
	c47,0,72.4,31.8,64.2,96.6C165,138.1,191.8,194.8,100.8,194.8L100.8,194.8z"/>
<g>
	<g>
		<path d="M98,141.5"/>
		<path d="M147.8,136.2c0-4.5-3.6-8.1-8.1-8.1c-4.5,0-8.1,3.6-8.1,8.1c0,4.5,3.6,8.1,8.1,8.1C144.2,144.3,147.8,140.7,147.8,136.2z"
			/>
		<path d="M53.8,136.2c0-4.5,3.6-8.1,8.1-8.1c4.5,0,8.1,3.6,8.1,8.1c0,4.5-3.6,8.1-8.1,8.1C57.4,144.3,53.8,140.7,53.8,136.2z"/>
	</g>
</g>
<path d="M100.8,197.9c-33.9,0-56.1-7.8-65.8-23.1c-9.8-15.4-3.4-33-1.7-37.2c-4.4-35.4,1-62,16-79c11.8-13.5,29.1-20.3,51.4-20.3
	c22.3,0,39.6,6.8,51.4,20.3c15,17,20.4,43.6,16,79c1.7,4.2,8.1,21.7-1.7,37.2C156.8,190.1,134.7,197.9,100.8,197.9z M100.8,44.7
	c-20.4,0-36.1,6.1-46.7,18.1c-13.8,15.7-18.7,40.9-14.3,74.9c0.1,0.6,0,1.2-0.3,1.8c-0.1,0.2-8.1,17.7,0.9,32
	c8.5,13.4,28.8,20.1,60.4,20.1l0,0c31.6,0,51.9-6.8,60.4-20.1c9.1-14.3,1-31.8,0.9-32c-0.3-0.5-0.4-1.2-0.3-1.8
	c4.3-34-0.5-59.2-14.3-74.9C136.9,50.8,121.2,44.7,100.8,44.7z"/>
<g>
	<g>
		<line class="st1" x1="117.5" y1="169.7" x2="116.4" y2="169.2"/>
		<path d="M117.5,172.1c-0.3,0-0.7-0.1-1-0.2l-1.1-0.5c-1.2-0.6-1.7-2-1.2-3.1c0.5-1.2,2-1.7,3.1-1.2l1.1,0.5c1.2,0.5,1.7,2,1.2,3.1
			C119.2,171.6,118.4,172.1,117.5,172.1z"/>
	</g>
	<g>
		<line class="st1" x1="84.1" y1="169.7" x2="85.2" y2="169.2"/>
		<path d="M84.1,172.1c-0.9,0-1.8-0.5-2.2-1.4c-0.5-1.2,0-2.6,1.2-3.1l1.1-0.5c1.2-0.5,2.6,0,3.2,1.2c0.5,1.2,0,2.6-1.2,3.1
			l-1.1,0.5C84.8,172,84.4,172.1,84.1,172.1z"/>
	</g>
</g>
<g>
	<path class="st0" d="M101.8,94.3c19.1-20.7,25.6-47,16.1-66.4c-2.1-4.4-6.6-11.5-16.3-17.8c0.6,2.9,1.2,7.4,0.4,12.8
		c-0.6,4.4-1.9,7.9-3.1,10.3c-0.8-2.1-2.9-6.4-7.5-10.2c-4.5-3.7-9.2-4.8-11.4-5.2c1.1,2.9,2.6,7.9,2.2,14.3
		c-0.3,4.6-1.5,8.4-2.5,10.9c4,4.6,8.5,10.8,12.5,18.6C98.8,74.4,101,86.3,101.8,94.3z"/>
	<path d="M101.8,97.5c-0.3,0-0.7-0.1-1-0.2c-1.2-0.4-2-1.5-2.2-2.7c-1.1-11.1-4.2-21.8-9.2-31.6c-3.3-6.4-7.3-12.5-12-18
		c-0.8-0.9-1-2.2-0.5-3.3c1.3-3.2,2.1-6.5,2.3-9.8c0.3-4.4-0.4-8.8-2-12.9c-0.4-1.1-0.2-2.3,0.5-3.2c0.7-0.9,1.9-1.3,3-1.1
		c3.3,0.6,8.1,2.1,12.8,5.9c2,1.6,3.6,3.3,4.8,5c0.3-1,0.5-2.1,0.6-3.1c0.6-3.9,0.4-7.8-0.4-11.7c-0.3-1.3,0.3-2.5,1.3-3.3
		c1.1-0.7,2.5-0.7,3.5,0c7.8,5.1,13.7,11.5,17.4,19.1c10.1,20.6,3.6,48.1-16.6,70C103.5,97.2,102.7,97.5,101.8,97.5z M83.4,42.3
		c4.5,5.5,8.5,11.5,11.7,17.8c4.3,8.4,7.2,17.4,8.9,26.7C118.8,68,123.2,46,115.1,29.3c-2.2-4.6-5.4-8.7-9.4-12.2
		c0,2.1-0.1,4.2-0.4,6.2c-0.6,3.9-1.7,7.6-3.3,11.2c-0.5,1.1-1.7,1.9-3,1.8c-1.3,0-2.4-0.8-2.9-2c-1-2.4-2.9-5.9-6.6-8.9
		c-1.6-1.3-3.2-2.2-4.7-2.9c0.7,3.2,0.9,6.4,0.7,9.7C85.3,35.7,84.6,39.1,83.4,42.3z"/>
</g>
<path d="M166,192.3c-2.6,0-5.2-0.7-7.2-2.1c-3.8-2.6-5-6.4-6.1-9.8c-0.9-2.9-1.8-5.4-4-7.2c-1.6-1.3-3.6-2-6.1-2.1
	c-1.8,0-3.1-1.5-3.1-3.3c0-1.7,1.5-3.1,3.2-3.1c0,0,0.1,0,0.1,0c3.9,0.1,7.2,1.3,9.9,3.5c3.6,3,4.9,6.8,6,10.1
	c0.9,2.9,1.7,5.2,3.7,6.6c1.8,1.2,4.7,1.3,7.2,0.2c3.3-1.5,4.4-5.1,4.6-5.8c0.4-1.7,2.2-2.7,3.9-2.3c1.7,0.4,2.7,2.2,2.3,3.9
	c-0.4,1.7-2.3,7.3-8.1,9.9C170.2,191.8,168.1,192.3,166,192.3z"/>
<path d="M35.5,192.3c-2.1,0-4.2-0.4-6.2-1.3c-5.8-2.6-7.7-8.3-8.1-10c-0.4-1.7,0.6-3.4,2.3-3.9c1.7-0.4,3.4,0.6,3.9,2.3
	c0.2,0.7,1.3,4.3,4.6,5.8c2.4,1.1,5.4,1,7.2-0.2c2-1.4,2.8-3.7,3.7-6.6c1.1-3.4,2.3-7.2,6-10.1c2.7-2.2,6-3.4,9.9-3.5
	c1.7-0.1,3.2,1.3,3.3,3.1c0,1.8-1.3,3.2-3.1,3.3c-2.4,0.1-4.5,0.8-6.1,2.1c-2.2,1.8-3,4.3-4,7.2c-1.1,3.4-2.3,7.2-6.1,9.8
	C40.7,191.6,38.2,192.3,35.5,192.3z"/>
<path d="M36.4,88.8C26.4,80.7,16.1,76,16,76l2.7-5.9c0.4,0.2,11.1,5.1,21.7,13.7L36.4,88.8z"/>
</svg>
